<?xml version="1.0" encoding="UTF-8" standalone="no"?>
<!-- Created with Inkscape (http://www.inkscape.org/) -->

<svg
   xmlns:dc="http://purl.org/dc/elements/1.1/"
   xmlns:cc="http://creativecommons.org/ns#"
   xmlns:rdf="http://www.w3.org/1999/02/22-rdf-syntax-ns#"
   xmlns:svg="http://www.w3.org/2000/svg"
   xmlns="http://www.w3.org/2000/svg"
   xmlns:xlink="http://www.w3.org/1999/xlink"
   xmlns:sodipodi="http://sodipodi.sourceforge.net/DTD/sodipodi-0.dtd"
   xmlns:inkscape="http://www.inkscape.org/namespaces/inkscape"
   id="svg3233"
   version="1.1"
   inkscape:version="0.48.5 r10040"
   width="1581.35"
   height="995.34003"
   xml:space="preserve"
   sodipodi:docname="i001.svg"><metadata
     id="metadata3239"><rdf:RDF><cc:Work
         rdf:about=""><dc:format>image/svg+xml</dc:format><dc:type
           rdf:resource="http://purl.org/dc/dcmitype/StillImage" /><dc:title></dc:title></cc:Work></rdf:RDF></metadata><defs
     id="defs3237"><linearGradient
       inkscape:collect="always"
       id="linearGradient4875"><stop
         style="stop-color:#cccccc;stop-opacity:1"
         offset="0"
         id="stop4877" /><stop
         style="stop-color:#333333;stop-opacity:1"
         offset="1"
         id="stop4879" /></linearGradient><clipPath
       clipPathUnits="userSpaceOnUse"
       id="clipPath3245"><path
         d="m 0,0 1077,0 0,994 L 0,994 0,0 z"
         id="path3247"
         inkscape:connector-curvature="0" /></clipPath><clipPath
       clipPathUnits="userSpaceOnUse"
       id="clipPath3251"><path
         d="M 0,0 0,994 1077,994 1077,0 0,0 z"
         id="path3253"
         inkscape:connector-curvature="0" /></clipPath><clipPath
       clipPathUnits="userSpaceOnUse"
       id="clipPath3261"><path
         d="m 0,0 1077,0 0,994 L 0,994 0,0 z"
         id="path3263"
         inkscape:connector-curvature="0" /></clipPath><linearGradient
       inkscape:collect="always"
       xlink:href="#linearGradient4875-2"
       id="linearGradient4881-0"
       x1="1151.0978"
       y1="783.98236"
       x2="1273.644"
       y2="783.98236"
       gradientUnits="userSpaceOnUse" /><linearGradient
       inkscape:collect="always"
       id="linearGradient4875-2"><stop
         style="stop-color:#cccccc;stop-opacity:1"
         offset="0"
         id="stop4877-7" /><stop
         style="stop-color:#333333;stop-opacity:1"
         offset="1"
         id="stop4879-5" /></linearGradient><linearGradient
       inkscape:collect="always"
       xlink:href="#linearGradient4875-9"
       id="linearGradient4881-2"
       x1="1151.0978"
       y1="783.98236"
       x2="1273.644"
       y2="783.98236"
       gradientUnits="userSpaceOnUse" /><linearGradient
       inkscape:collect="always"
       id="linearGradient4875-9"><stop
         style="stop-color:#cccccc;stop-opacity:1"
         offset="0"
         id="stop4877-1" /><stop
         style="stop-color:#333333;stop-opacity:1"
         offset="1"
         id="stop4879-3" /></linearGradient><linearGradient
       inkscape:collect="always"
       xlink:href="#linearGradient4875-5"
       id="linearGradient4881-7"
       x1="1151.0978"
       y1="783.98236"
       x2="1273.644"
       y2="783.98236"
       gradientUnits="userSpaceOnUse" /><linearGradient
       inkscape:collect="always"
       id="linearGradient4875-5"><stop
         style="stop-color:#cccccc;stop-opacity:1"
         offset="0"
         id="stop4877-6" /><stop
         style="stop-color:#333333;stop-opacity:1"
         offset="1"
         id="stop4879-1" /></linearGradient><linearGradient
       inkscape:collect="always"
       xlink:href="#linearGradient4875"
       id="linearGradient3304"
       gradientUnits="userSpaceOnUse"
       gradientTransform="matrix(1.5524334,0,0,1.5524334,-3712.5608,-361.42233)"
       x1="1151.0978"
       y1="783.98236"
       x2="1273.644"
       y2="783.98236" /></defs><sodipodi:namedview
     pagecolor="#ffffff"
     bordercolor="#666666"
     borderopacity="1"
     objecttolerance="10"
     gridtolerance="10"
     guidetolerance="10"
     inkscape:pageopacity="0"
     inkscape:pageshadow="2"
     inkscape:window-width="1366"
     inkscape:window-height="716"
     id="namedview3235"
     showgrid="false"
     inkscape:zoom="0.29686418"
     inkscape:cx="1064.5207"
     inkscape:cy="360.19009"
     inkscape:window-x="-8"
     inkscape:window-y="-8"
     inkscape:window-maximized="1"
     inkscape:current-layer="g3241"
     fit-margin-top="0"
     fit-margin-left="0"
     fit-margin-right="0"
     fit-margin-bottom="0"
     units="px" /><g
     id="g3241"
     inkscape:groupmode="layer"
     inkscape:label="week1_nb"
     transform="matrix(0.64415,0,0,0.64415,-67.328661,277.6824)">

<g
   id="g3155"
   transform="translate(192.50184,-158.34827)"><path
   d="M 423.07401,204.72192 1191.4135,877.11577"
   style="fill:none;stroke:#fdc607;stroke-width:0.99910998;stroke-linecap:square;stroke-linejoin:miter;stroke-miterlimit:10;stroke-opacity:1;stroke-dasharray:none"
   id="path3267"
   inkscape:connector-curvature="0" /><path
   d="M 330.06797,412.60368 486.44227,891.1274"
   style="fill:none;stroke:#fdc607;stroke-width:0.99910998;stroke-linecap:square;stroke-linejoin:miter;stroke-miterlimit:10;stroke-opacity:1;stroke-dasharray:none"
   id="path3269"
   inkscape:connector-curvature="0" /><path
   d="M 367.3888,774.84426 486.44227,891.1274"
   style="fill:none;stroke:#fdc607;stroke-width:0.99910998;stroke-linecap:square;stroke-linejoin:miter;stroke-miterlimit:10;stroke-opacity:1;stroke-dasharray:none"
   id="path3271"
   inkscape:connector-curvature="0" /><path
   d="M 423.07401,204.72192 486.44227,891.1274"
   style="fill:none;stroke:#fdc607;stroke-width:0.99910998;stroke-linecap:square;stroke-linejoin:miter;stroke-miterlimit:10;stroke-opacity:1;stroke-dasharray:none"
   id="path3273"
   inkscape:connector-curvature="0" /><path
   d="M 1252.1771,726.53854 915.50856,94.0467"
   style="fill:none;stroke:#27ef22;stroke-width:5.9946599;stroke-linecap:square;stroke-linejoin:miter;stroke-miterlimit:10;stroke-opacity:1;stroke-dasharray:none"
   id="path3275"
   inkscape:connector-curvature="0" /><path
   d="M 330.06797,412.60368 915.50856,94.0467"
   style="fill:none;stroke:#a1aee2;stroke-width:0.99910998;stroke-linecap:square;stroke-linejoin:miter;stroke-miterlimit:10;stroke-opacity:1;stroke-dasharray:none"
   id="path3277"
   inkscape:connector-curvature="0" /><path
   d="M 423.07401,204.72192 915.50856,94.0467"
   style="fill:none;stroke:#27ef22;stroke-width:5.9946599;stroke-linecap:square;stroke-linejoin:miter;stroke-miterlimit:10;stroke-opacity:1;stroke-dasharray:none"
   id="path3279"
   inkscape:connector-curvature="0" /><path
   d="M 808.31328,1026.7684 915.50856,94.0467"
   style="fill:none;stroke:#a1aee2;stroke-width:0.99910998;stroke-linecap:square;stroke-linejoin:miter;stroke-miterlimit:10;stroke-opacity:1;stroke-dasharray:none"
   id="path3281"
   inkscape:connector-curvature="0" /><path
   d="M 367.3888,774.84426 606.02037,96.374796"
   style="fill:none;stroke:#27ef22;stroke-width:5.9946599;stroke-linecap:square;stroke-linejoin:miter;stroke-miterlimit:10;stroke-opacity:1;stroke-dasharray:none"
   id="path3283"
   inkscape:connector-curvature="0" /><path
   d="M 1039.073,974.49454 606.02037,96.374796"
   style="fill:none;stroke:#a1aee2;stroke-width:0.99910998;stroke-linecap:square;stroke-linejoin:miter;stroke-miterlimit:10;stroke-opacity:1;stroke-dasharray:none"
   id="path3285"
   inkscape:connector-curvature="0" /><path
   d="M 808.31328,1026.7684 606.02037,96.374796"
   style="fill:none;stroke:#27ef22;stroke-width:5.9946599;stroke-linecap:square;stroke-linejoin:miter;stroke-miterlimit:10;stroke-opacity:1;stroke-dasharray:none"
   id="path3287"
   inkscape:connector-curvature="0" /><path
   d="M 296.01407,600.8185 606.02037,96.374796"
   style="fill:none;stroke:#fdc607;stroke-width:0.99910998;stroke-linecap:square;stroke-linejoin:miter;stroke-miterlimit:10;stroke-opacity:1;stroke-dasharray:none"
   id="path3289"
   inkscape:connector-curvature="0" /><path
   d="m 1039.073,974.49454 213.1041,-247.956"
   style="fill:none;stroke:#a1aee2;stroke-width:0.99910998;stroke-linecap:square;stroke-linejoin:miter;stroke-miterlimit:10;stroke-opacity:1;stroke-dasharray:none"
   id="path3291"
   inkscape:connector-curvature="0" /><path
   d="M 808.31328,1026.7684 1252.1771,726.53854"
   style="fill:none;stroke:#27ef22;stroke-width:5.9946599;stroke-linecap:square;stroke-linejoin:miter;stroke-miterlimit:10;stroke-opacity:1;stroke-dasharray:none"
   id="path3293"
   inkscape:connector-curvature="0" /><path
   d="M 296.01407,600.8185 1252.1771,726.53854"
   style="fill:none;stroke:#fdc607;stroke-width:0.99910998;stroke-linecap:square;stroke-linejoin:miter;stroke-miterlimit:10;stroke-opacity:1;stroke-dasharray:none"
   id="path3295"
   inkscape:connector-curvature="0" /><path
   d="M 423.07401,204.72192 330.06797,412.60368"
   style="fill:none;stroke:#a1aee2;stroke-width:0.99910998;stroke-linecap:square;stroke-linejoin:miter;stroke-miterlimit:10;stroke-opacity:1;stroke-dasharray:none"
   id="path3297"
   inkscape:connector-curvature="0" /><path
   d="M 1039.073,974.49454 367.3888,774.84426"
   style="fill:none;stroke:#27ef22;stroke-width:5.9946599;stroke-linecap:square;stroke-linejoin:miter;stroke-miterlimit:10;stroke-opacity:1;stroke-dasharray:none"
   id="path3299"
   inkscape:connector-curvature="0" /><path
   d="M 1066.4324,180.6964 367.3888,774.84426"
   style="fill:none;stroke:#fdc607;stroke-width:0.99910998;stroke-linecap:square;stroke-linejoin:miter;stroke-miterlimit:10;stroke-opacity:1;stroke-dasharray:none"
   id="path3301"
   inkscape:connector-curvature="0" /><path
   d="M 808.31328,1026.7684 1039.073,974.49454"
   style="fill:none;stroke:#a1aee2;stroke-width:0.99910998;stroke-linecap:square;stroke-linejoin:miter;stroke-miterlimit:10;stroke-opacity:1;stroke-dasharray:none"
   id="path3303"
   inkscape:connector-curvature="0" /><path
   d="m 1212.2944,268.56292 -789.22039,-63.841"
   style="fill:none;stroke:#a1aee2;stroke-width:0.99910998;stroke-linecap:square;stroke-linejoin:miter;stroke-miterlimit:10;stroke-opacity:1;stroke-dasharray:none"
   id="path3305"
   inkscape:connector-curvature="0" /><path
   d="M 1299.7422,436.3913 423.07401,204.72192"
   style="fill:none;stroke:#fdc607;stroke-width:0.99910998;stroke-linecap:square;stroke-linejoin:miter;stroke-miterlimit:10;stroke-opacity:1;stroke-dasharray:none"
   id="path3307"
   inkscape:connector-curvature="0" /><path
   d="M 1281.523,591.18219 423.07401,204.72192"
   style="fill:none;stroke:#27ef22;stroke-width:5.9946599;stroke-linecap:square;stroke-linejoin:miter;stroke-miterlimit:10;stroke-opacity:1;stroke-dasharray:none"
   id="path3309"
   inkscape:connector-curvature="0" /><path
   d="M 1066.4324,180.6964 423.07401,204.72192"
   style="fill:none;stroke:#27ef22;stroke-width:5.9946599;stroke-linecap:square;stroke-linejoin:miter;stroke-miterlimit:10;stroke-opacity:1;stroke-dasharray:none"
   id="path3311"
   inkscape:connector-curvature="0" /><path
   d="M 1281.523,591.18219 1212.2944,268.56292"
   style="fill:none;stroke:#fdc607;stroke-width:0.99910998;stroke-linecap:square;stroke-linejoin:miter;stroke-miterlimit:10;stroke-opacity:1;stroke-dasharray:none"
   id="path3313"
   inkscape:connector-curvature="0" /><path
   d="m 296.01407,600.8185 512.29921,425.9499"
   style="fill:none;stroke:#fdc607;stroke-width:0.99910998;stroke-linecap:square;stroke-linejoin:miter;stroke-miterlimit:10;stroke-opacity:1;stroke-dasharray:none"
   id="path3315"
   inkscape:connector-curvature="0" /><path
   d="M 296.01407,600.8185 1299.7422,436.3913"
   style="fill:none;stroke:#fdc607;stroke-width:0.99910998;stroke-linecap:square;stroke-linejoin:miter;stroke-miterlimit:10;stroke-opacity:1;stroke-dasharray:none"
   id="path3317"
   inkscape:connector-curvature="0" /><path
   d="m 1066.4324,180.6964 233.3098,255.6949"
   style="fill:none;stroke:#fdc607;stroke-width:0.99910998;stroke-linecap:square;stroke-linejoin:miter;stroke-miterlimit:10;stroke-opacity:1;stroke-dasharray:none"
   id="path3319"
   inkscape:connector-curvature="0" /><g
   id="g3321"
   transform="matrix(0.99911,0,0,-0.99911,114.69629,960.1432)"><text
   transform="matrix(1,0,0,-1,234.94278,0)"
   id="text3323"><tspan
     style="font-size:41px;font-variant:normal;font-weight:normal;writing-mode:lr-tb;fill:#000000;fill-opacity:1;fill-rule:nonzero;stroke:none;font-family:Helvetica;-inkscape-font-specification:Helvetica"
     x="0 27.347 36.449001 59.244999 68.347 88.847 109.347"
     y="0"
     sodipodi:role="line"
     id="tspan3325">Albizzi</tspan></text>


</g><path
   d="m 511.49038,891.12771 c 0,13.83313 -11.21399,25.04775 -25.04823,25.04775 -13.83401,0 -25.04799,-11.21462 -25.04799,-25.04775 0,-13.83345 11.21398,-25.04843 25.04799,-25.04843 13.83424,0 25.04823,11.21498 25.04823,25.04843 z"
   style="fill:#454545;fill-opacity:1;fill-rule:nonzero;stroke:none"
   id="path3327"
   inkscape:connector-curvature="0" /><path
   d="m 511.49038,891.12771 c 0,13.83313 -11.21399,25.04775 -25.04823,25.04775 -13.83401,0 -25.04799,-11.21462 -25.04799,-25.04775 0,-13.83345 11.21398,-25.04843 25.04799,-25.04843 13.83424,0 25.04823,11.21498 25.04823,25.04843 z"
   style="fill:none;stroke:#181818;stroke-width:0.99910998;stroke-linecap:square;stroke-linejoin:miter;stroke-miterlimit:10;stroke-opacity:1;stroke-dasharray:none"
   id="path3329"
   inkscape:connector-curvature="0" /><g
   id="g3331"
   transform="matrix(0.99911,0,0,-0.99911,186.1083,1105.9509)"><text
   transform="matrix(1,0,0,-1,561.06024,0)"
   id="text3333"><tspan
     style="font-size:41px;font-variant:normal;font-weight:normal;writing-mode:lr-tb;fill:#000000;fill-opacity:1;fill-rule:nonzero;stroke:none;font-family:Helvetica;-inkscape-font-specification:Helvetica"
     x="0 27.347 50.143002 63.796001 86.592003 107.092 127.592"
     y="0"
     sodipodi:role="line"
     id="tspan3335">Peruzzi</tspan></text>


</g><path
   d="m 837.31759,1026.7689 c 0,16.0179 -12.98525,29.004 -29.00443,29.004 -16.01875,0 -29.00413,-12.9861 -29.00413,-29.004 0,-16.0188 12.98538,-29.00497 29.00413,-29.00497 16.01918,0 29.00443,12.98617 29.00443,29.00497 z"
   style="fill:#757575;fill-opacity:1;fill-rule:nonzero;stroke:none"
   id="path3337"
   inkscape:connector-curvature="0" /><path
   d="m 837.31759,1026.7689 c 0,16.0179 -12.98525,29.004 -29.00443,29.004 -16.01875,0 -29.00413,-12.9861 -29.00413,-29.004 0,-16.0188 12.98538,-29.00497 29.00413,-29.00497 16.01918,0 29.00443,12.98617 29.00443,29.00497 z"
   style="fill:none;stroke:#585858;stroke-width:0.99910998;stroke-linecap:square;stroke-linejoin:miter;stroke-miterlimit:10;stroke-opacity:1;stroke-dasharray:none"
   id="path3339"
   inkscape:connector-curvature="0" /><g
   id="g3341"
   transform="matrix(0.99911,0,0,-0.99911,294.77875,282.25711)"><text
   transform="matrix(1,0,0,-1,965.11359,0)"
   id="text3343"><tspan
     style="font-size:41px;font-variant:normal;font-weight:normal;writing-mode:lr-tb;fill:#000000;fill-opacity:1;fill-rule:nonzero;stroke:none;font-family:Helvetica;-inkscape-font-specification:Helvetica"
     x="0 27.347 50.143002 70.642998 91.142998"
     y="0"
     sodipodi:role="line"
     id="tspan3345">Pazzi</tspan></text>


</g><path
   d="m 1241.0136,268.56294 c 0,15.86064 -12.8575,28.71897 -28.7193,28.71897 -15.8616,0 -28.7192,-12.85833 -28.7192,-28.71897 0,-15.86084 12.8576,-28.719 28.7192,-28.719 15.8618,0 28.7193,12.85816 28.7193,28.719 z"
   style="fill:#cccccc;fill-opacity:1;fill-rule:nonzero;stroke:none"
   id="path3347"
   inkscape:connector-curvature="0" /><path
   d="m 1241.0136,268.56294 c 0,15.86064 -12.8575,28.71897 -28.7193,28.71897 -15.8616,0 -28.7192,-12.85833 -28.7192,-28.71897 0,-15.86084 12.8576,-28.719 28.7192,-28.719 15.8618,0 28.7193,12.85816 28.7193,28.719 z"
   style="fill:none;stroke:#cccccc;stroke-width:0.99910998;stroke-linecap:square;stroke-linejoin:miter;stroke-miterlimit:10;stroke-opacity:1;stroke-dasharray:none"
   id="path3349"
   inkscape:connector-curvature="0" /><g
   id="g3351"
   transform="matrix(0.99911,0,0,-0.99911,282.35927,163.3419)"><text
   transform="matrix(1,0,0,-1,819.12305,0)"
   id="text3353"><tspan
     style="font-size:41px;font-variant:normal;font-weight:normal;writing-mode:lr-tb;fill:#000000;fill-opacity:1;fill-rule:nonzero;stroke:none;font-family:Helvetica;-inkscape-font-specification:Helvetica"
     x="0 25.051001 47.847 61.5 84.295998 107.092 129.888 152.68401 175.48 198.276"
     y="0"
     sodipodi:role="line"
     id="tspan3355">Tornabuoni</tspan></text>


</g><path
   d="m 1095.1516,180.69645 c 0,15.86065 -12.8575,28.71894 -28.7194,28.71894 -15.8615,0 -28.7191,-12.85829 -28.7191,-28.71894 0,-15.86077 12.8576,-28.71905 28.7191,-28.71905 15.8619,0 28.7194,12.85828 28.7194,28.71905 z"
   style="fill:#cccccc;fill-opacity:1;fill-rule:nonzero;stroke:none"
   id="path3357"
   inkscape:connector-curvature="0" /><path
   d="m 1095.1516,180.69645 c 0,15.86065 -12.8575,28.71894 -28.7194,28.71894 -15.8615,0 -28.7191,-12.85829 -28.7191,-28.71894 0,-15.86077 12.8576,-28.71905 28.7191,-28.71905 15.8619,0 28.7194,12.85828 28.7194,28.71905 z"
   style="fill:none;stroke:#cccccc;stroke-width:0.99910998;stroke-linecap:square;stroke-linejoin:miter;stroke-miterlimit:10;stroke-opacity:1;stroke-dasharray:none"
   id="path3359"
   inkscape:connector-curvature="0" /><g
   id="g3361"
   transform="matrix(0.99911,0,0,-0.99911,288.56901,901.16451)"><text
   transform="matrix(1,0,0,-1,929.7171,0)"
   id="text3363"><tspan
     style="font-size:41px;font-variant:normal;font-weight:normal;writing-mode:lr-tb;fill:#000000;fill-opacity:1;fill-rule:nonzero;stroke:none;font-family:Helvetica;-inkscape-font-specification:Helvetica"
     x="0 27.347 47.847 68.347 77.448997 100.245 109.347 132.14301 154.939 164.041"
     y="0"
     sodipodi:role="line"
     id="tspan3365">Acciaiuoli</tspan></text>


</g><path
   d="m 1205.6483,877.11523 c 0,7.86134 -6.3738,14.23512 -14.2353,14.23512 -7.8616,0 -14.2342,-6.37378 -14.2342,-14.23512 0,-7.8616 6.3726,-14.23409 14.2342,-14.23409 7.8615,0 14.2353,6.37249 14.2353,14.23409 z"
   style="fill:#5e5e5e;fill-opacity:1;fill-rule:nonzero;stroke:none"
   id="path3367"
   inkscape:connector-curvature="0" /><path
   d="m 1205.6483,877.11523 c 0,7.86134 -6.3738,14.23512 -14.2353,14.23512 -7.8616,0 -14.2342,-6.37378 -14.2342,-14.23512 0,-7.8616 6.3726,-14.23409 14.2342,-14.23409 7.8615,0 14.2353,6.37249 14.2353,14.23409 z"
   style="fill:none;stroke:#393939;stroke-width:0.99910998;stroke-linecap:square;stroke-linejoin:miter;stroke-miterlimit:10;stroke-opacity:1;stroke-dasharray:none"
   id="path3369"
   inkscape:connector-curvature="0" /><g
   id="g3371"
   transform="matrix(0.99911,0,0,-0.99911,192.31804,1048.5126)"><text
   transform="matrix(1,0,0,-1,789.96405,0)"
   id="text3373"><tspan
     style="font-size:41px;font-variant:normal;font-weight:normal;writing-mode:lr-tb;fill:#000000;fill-opacity:1;fill-rule:nonzero;stroke:none;font-family:Helvetica;-inkscape-font-specification:Helvetica"
     x="0 22.796 45.591999 79.745003 102.541 125.337 138.99001 150.388 173.18401 193.68401 214.18401 236.98"
     y="0"
     sodipodi:role="line"
     id="tspan3375">Lamberteschi</tspan></text>


</g><path
   d="m 1066.0183,974.49448 c 0,14.88134 -12.063,26.94502 -26.9452,26.94502 -14.8822,0 -26.9453,-12.06368 -26.9453,-26.94502 0,-14.88097 12.0631,-26.94492 26.9453,-26.94492 14.8822,0 26.9452,12.06395 26.9452,26.94492 z"
   style="fill:#cccccc;fill-opacity:1;fill-rule:nonzero;stroke:none"
   id="path3377"
   inkscape:connector-curvature="0" /><path
   d="m 1066.0183,974.49448 c 0,14.88134 -12.063,26.94502 -26.9452,26.94502 -14.8822,0 -26.9453,-12.06368 -26.9453,-26.94502 0,-14.88097 12.0631,-26.94492 26.9453,-26.94492 14.8822,0 26.9452,12.06395 26.9452,26.94492 z"
   style="fill:none;stroke:#cccccc;stroke-width:0.99910998;stroke-linecap:square;stroke-linejoin:miter;stroke-miterlimit:10;stroke-opacity:1;stroke-dasharray:none"
   id="path3379"
   inkscape:connector-curvature="0" /><g
   id="g3381"
   transform="matrix(0.99911,0,0,-0.99911,99.171943,415.0702)"><text
   transform="matrix(1,0,0,-1,77.08095,0)"
   id="text3383"><tspan
     style="font-size:41px;font-variant:normal;font-weight:normal;writing-mode:lr-tb;fill:#000000;fill-opacity:1;fill-rule:nonzero;stroke:none;font-family:Helvetica;-inkscape-font-specification:Helvetica"
     x="0 31.898001 41 63.796001 86.592003 100.245"
     y="0"
     sodipodi:role="line"
     id="tspan3385">Ginori</tspan></text>


</g><path
   d="m 353.76904,412.60356 c 0,13.08954 -10.61092,23.70118 -23.70104,23.70118 -13.09017,0 -23.7011,-10.61164 -23.7011,-23.70118 0,-13.08932 10.61093,-23.70091 23.7011,-23.70091 13.09012,0 23.70104,10.61159 23.70104,23.70091 z"
   style="fill:#cccccc;fill-opacity:1;fill-rule:nonzero;stroke:none"
   id="path3387"
   inkscape:connector-curvature="0" /><path
   d="m 353.76904,412.60356 c 0,13.08954 -10.61092,23.70118 -23.70104,23.70118 -13.09017,0 -23.7011,-10.61164 -23.7011,-23.70118 0,-13.08932 10.61093,-23.70091 23.7011,-23.70091 13.09012,0 23.70104,10.61159 23.70104,23.70091 z"
   style="fill:none;stroke:#cccccc;stroke-width:0.99910998;stroke-linecap:square;stroke-linejoin:miter;stroke-miterlimit:10;stroke-opacity:1;stroke-dasharray:none"
   id="path3389"
   inkscape:connector-curvature="0" /><g
   id="g3391"
   transform="matrix(0.99911,0,0,-0.99911,33.969736,616.62043)"><text
   transform="matrix(1,0,0,-1,68.77458,0)"
   id="text3393"><tspan
     style="font-size:41px;font-variant:normal;font-weight:normal;writing-mode:lr-tb;fill:#000000;fill-opacity:1;fill-rule:nonzero;stroke:none;font-family:Helvetica;-inkscape-font-specification:Helvetica"
     x="0 27.347 38.744999 52.397999 75.194 95.694 116.194"
     y="0"
     sodipodi:role="line"
     id="tspan3395">Strozzi</tspan></text>


</g><path
   d="m 345.47008,600.8185 c 0,27.31307 -22.14141,49.45595 -49.45599,49.45595 -27.31457,0 -49.456,-22.14288 -49.456,-49.45595 0,-27.31313 22.14143,-49.45594 49.456,-49.45594 27.31458,0 49.45599,22.14281 49.45599,49.45594 z"
   style="fill:#333333;fill-opacity:1;fill-rule:nonzero;stroke:none"
   id="path3397"
   inkscape:connector-curvature="0" /><path
   d="m 345.47008,600.8185 c 0,27.31307 -22.14141,49.45595 -49.45599,49.45595 -27.31457,0 -49.456,-22.14288 -49.456,-49.45595 0,-27.31313 22.14143,-49.45594 49.456,-49.45594 27.31458,0 49.45599,22.14281 49.45599,49.45594 z"
   style="fill:none;stroke:#000000;stroke-width:0.99910998;stroke-linecap:square;stroke-linejoin:miter;stroke-miterlimit:10;stroke-opacity:1;stroke-dasharray:none"
   id="path3399"
   inkscape:connector-curvature="0" /><g
   id="g3401"
   transform="matrix(0.99911,0,0,-0.99911,49.494071,788.39378)"><text
   transform="matrix(1,0,0,-1,103.77441,0)"
   id="text3403"><tspan
     style="font-size:41px;font-variant:normal;font-weight:normal;writing-mode:lr-tb;fill:#000000;fill-opacity:1;fill-rule:nonzero;stroke:none;font-family:Helvetica;-inkscape-font-specification:Helvetica"
     x="0 31.898001 54.694 77.489998 100.286 123.082 145.87801 168.674"
     y="0"
     sodipodi:role="line"
     id="tspan3405">Guadagni</tspan></text>


</g><path
   d="m 380.43875,774.84384 c 0,7.20714 -5.84255,13.05039 -13.05001,13.05039 -7.2075,0 -13.04987,-5.84325 -13.04987,-13.05039 0,-7.20727 5.84237,-13.04948 13.04987,-13.04948 7.20746,0 13.05001,5.84221 13.05001,13.04948 z"
   style="fill:#a0a0a0;fill-opacity:1;fill-rule:nonzero;stroke:none"
   id="path3407"
   inkscape:connector-curvature="0" /><path
   d="m 380.43875,774.84384 c 0,7.20714 -5.84255,13.05039 -13.05001,13.05039 -7.2075,0 -13.04987,-5.84325 -13.04987,-13.05039 0,-7.20727 5.84237,-13.04948 13.04987,-13.04948 7.20746,0 13.05001,5.84221 13.05001,13.04948 z"
   style="fill:none;stroke:#929292;stroke-width:0.99910998;stroke-linecap:square;stroke-linejoin:miter;stroke-miterlimit:10;stroke-opacity:1;stroke-dasharray:none"
   id="path3409"
   inkscape:connector-curvature="0" /><g
   id="g3411"
   transform="matrix(0.99911,0,0,-0.99911,55.703805,203.38636)"><text
   transform="matrix(1,0,0,-1,188.11781,0)"
   id="text3413"><tspan
     style="font-size:41px;font-variant:normal;font-weight:normal;writing-mode:lr-tb;fill:#000000;fill-opacity:1;fill-rule:nonzero;stroke:none;font-family:Helvetica;-inkscape-font-specification:Helvetica"
     x="0 34.153 56.949001 79.745003 88.847 109.347"
     y="0"
     sodipodi:role="line"
     id="tspan3415">Medici</tspan></text>


</g><path
   d="m 464.70708,204.72189 c 0,22.9928 -18.63911,41.63309 -41.63313,41.63309 -22.99386,0 -41.63301,-18.64029 -41.63301,-41.63309 0,-22.99286 18.63915,-41.63304 41.63301,-41.63304 22.99402,0 41.63313,18.64018 41.63313,41.63304 z"
   style="fill:#5e5e5e;fill-opacity:1;fill-rule:nonzero;stroke:none"
   id="path3417"
   inkscape:connector-curvature="0" /><path
   d="m 464.70708,204.72189 c 0,22.9928 -18.63911,41.63309 -41.63313,41.63309 -22.99386,0 -41.63301,-18.64029 -41.63301,-41.63309 0,-22.99286 18.63915,-41.63304 41.63301,-41.63304 22.99402,0 41.63313,18.64018 41.63313,41.63304 z"
   style="fill:none;stroke:#393939;stroke-width:0.99910998;stroke-linecap:square;stroke-linejoin:miter;stroke-miterlimit:10;stroke-opacity:1;stroke-dasharray:none"
   id="path3419"
   inkscape:connector-curvature="0" /><g
   id="g3421"
   transform="matrix(0.99911,0,0,-0.99911,288.56901,746.15053)"><text
   transform="matrix(1,0,0,-1,995.41638,0)"
   id="text3423"><tspan
     style="font-size:41px;font-variant:normal;font-weight:normal;writing-mode:lr-tb;fill:#000000;fill-opacity:1;fill-rule:nonzero;stroke:none;font-family:Helvetica;-inkscape-font-specification:Helvetica"
     x="0 29.601999 52.397999 72.898003 84.295998 107.092 116.194 125.296 148.092 170.888"
     y="0"
     sodipodi:role="line"
     id="tspan3425">Castellani</tspan></text>


</g><path
   d="m 1271.2895,726.53805 c 0,10.55548 -8.5564,19.11293 -19.1128,19.11293 -10.5555,0 -19.1121,-8.55745 -19.1121,-19.11293 0,-10.55444 8.5566,-19.11187 19.1121,-19.11187 10.5564,0 19.1128,8.55743 19.1128,19.11187 z"
   style="fill:#9e9e9e;fill-opacity:1;fill-rule:nonzero;stroke:none"
   id="path3427"
   inkscape:connector-curvature="0" /><path
   d="m 1271.2895,726.53805 c 0,10.55548 -8.5564,19.11293 -19.1128,19.11293 -10.5555,0 -19.1121,-8.55745 -19.1121,-19.11293 0,-10.55444 8.5566,-19.11187 19.1121,-19.11187 10.5564,0 19.1128,8.55743 19.1128,19.11187 z"
   style="fill:none;stroke:#8f8f8f;stroke-width:0.99910998;stroke-linecap:square;stroke-linejoin:miter;stroke-miterlimit:10;stroke-opacity:1;stroke-dasharray:none"
   id="path3429"
   inkscape:connector-curvature="0" /><g
   id="g3431"
   transform="matrix(0.99911,0,0,-0.99911,288.56901,452.58474)"><text
   transform="matrix(1,0,0,-1,1045.8175,0)"
   id="text3433"><tspan
     style="font-size:41px;font-variant:normal;font-weight:normal;writing-mode:lr-tb;fill:#000000;fill-opacity:1;fill-rule:nonzero;stroke:none;font-family:Helvetica;-inkscape-font-specification:Helvetica"
     x="0 29.601999 38.703999 61.5 84.295998 93.398003 104.796"
     y="0"
     sodipodi:role="line"
     id="tspan3435">Ridolfi</tspan></text>


</g><path
   d="m 1321.6458,436.39142 c 0,12.09641 -9.8068,21.9035 -21.904,21.9035 -12.0972,0 -21.9033,-9.80709 -21.9033,-21.9035 0,-12.0971 9.8061,-21.90374 21.9033,-21.90374 12.0972,0 21.904,9.80664 21.904,21.90374 z"
   style="fill:#7d7d7d;fill-opacity:1;fill-rule:nonzero;stroke:none"
   id="path3437"
   inkscape:connector-curvature="0" /><path
   d="m 1321.6458,436.39142 c 0,12.09641 -9.8068,21.9035 -21.904,21.9035 -12.0972,0 -21.9033,-9.80709 -21.9033,-21.9035 0,-12.0971 9.8061,-21.90374 21.9033,-21.90374 12.0972,0 21.904,9.80664 21.904,21.90374 z"
   style="fill:none;stroke:#636363;stroke-width:0.99910998;stroke-linecap:square;stroke-linejoin:miter;stroke-miterlimit:10;stroke-opacity:1;stroke-dasharray:none"
   id="path3439"
   inkscape:connector-curvature="0" /><g
   id="g3441"
   transform="matrix(0.99911,0,0,-0.99911,294.77875,605.91631)"><text
   transform="matrix(1,0,0,-1,1019.9063,0)"
   id="text3443"><tspan
     style="font-size:41px;font-variant:normal;font-weight:normal;writing-mode:lr-tb;fill:#000000;fill-opacity:1;fill-rule:nonzero;stroke:none;font-family:Helvetica;-inkscape-font-specification:Helvetica"
     x="0 27.347 50.143002 59.244999 79.745003 88.847 111.643 123.041"
     y="0"
     sodipodi:role="line"
     id="tspan3445">Salviati</tspan></text>


</g><path
   d="m 1295.7576,591.18261 c 0,7.86092 -6.3737,14.23415 -14.2351,14.23415 -7.8615,0 -14.2341,-6.37323 -14.2341,-14.23415 0,-7.86177 6.3726,-14.23505 14.2341,-14.23505 7.8614,0 14.2351,6.37328 14.2351,14.23505 z"
   style="fill:#838383;fill-opacity:1;fill-rule:nonzero;stroke:none"
   id="path3447"
   inkscape:connector-curvature="0" /><path
   d="m 1295.7576,591.18261 c 0,7.86092 -6.3737,14.23415 -14.2351,14.23415 -7.8615,0 -14.2341,-6.37323 -14.2341,-14.23415 0,-7.86177 6.3726,-14.23505 14.2341,-14.23505 7.8614,0 14.2351,6.37328 14.2351,14.23505 z"
   style="fill:none;stroke:#6b6b6b;stroke-width:0.99910998;stroke-linecap:square;stroke-linejoin:miter;stroke-miterlimit:10;stroke-opacity:1;stroke-dasharray:none"
   id="path3449"
   inkscape:connector-curvature="0" /><g
   id="g3451"
   transform="matrix(0.99911,0,0,-0.99911,179.89856,53.0112)"><text
   transform="matrix(1,0,0,-1,357.13031,0)"
   id="text3453"><tspan
     style="font-size:41px;font-variant:normal;font-weight:normal;writing-mode:lr-tb;fill:#000000;fill-opacity:1;fill-rule:nonzero;stroke:none;font-family:Helvetica;-inkscape-font-specification:Helvetica"
     x="0 27.347 36.449001 56.949001 77.448997 100.245 123.041 136.694"
     y="0"
     sodipodi:role="line"
     id="tspan3455">Bischeri</tspan></text>


</g><path
   d="m 633.56916,96.374816 c 0,15.214404 -12.33328,27.548794 -27.54852,27.548794 -15.21536,0 -27.54907,-12.33439 -27.54907,-27.548794 0,-15.214467 12.33371,-27.54881 27.54907,-27.54881 15.21524,0 27.54852,12.334343 27.54852,27.54881 z"
   style="fill:#b3b3b3;fill-opacity:1;fill-rule:nonzero;stroke:none"
   id="path3457"
   inkscape:connector-curvature="0" /><path
   d="m 633.56916,96.374816 c 0,15.214404 -12.33328,27.548794 -27.54852,27.548794 -15.21536,0 -27.54907,-12.33439 -27.54907,-27.548794 0,-15.214467 12.33371,-27.54881 27.54907,-27.54881 15.21524,0 27.54852,12.334343 27.54852,27.54881 z"
   style="fill:none;stroke:#aaaaaa;stroke-width:0.99910998;stroke-linecap:square;stroke-linejoin:miter;stroke-miterlimit:10;stroke-opacity:1;stroke-dasharray:none"
   id="path3459"
   inkscape:connector-curvature="0" /><g
   id="g3461"
   transform="matrix(0.99911,0,0,-0.99911,170.58395,47.585847)"><text
   transform="matrix(1,0,0,-1,670.0094,0)"
   id="text3463"><tspan
     style="font-size:41px;font-variant:normal;font-weight:normal;writing-mode:lr-tb;fill:#000000;fill-opacity:1;fill-rule:nonzero;stroke:none;font-family:Helvetica;-inkscape-font-specification:Helvetica"
     x="0 27.347 50.143002 63.796001 86.592003 109.388 132.18401 154.98 168.633"
     y="0"
     sodipodi:role="line"
     id="tspan3465">Barbadori</tspan></text>


</g><path
   d="m 946.16979,94.04665 c 0,16.93342 -13.72673,30.66134 -30.66098,30.66134 -16.9342,0 -30.66154,-13.72792 -30.66154,-30.66134 0,-16.933346 13.72734,-30.661208 30.66154,-30.661208 16.93425,0 30.66098,13.727862 30.66098,30.661208 z"
   style="fill:#cccccc;fill-opacity:1;fill-rule:nonzero;stroke:none"
   id="path3467"
   inkscape:connector-curvature="0" /><path
   d="m 946.16979,94.04665 c 0,16.93342 -13.72673,30.66134 -30.66098,30.66134 -16.9342,0 -30.66154,-13.72792 -30.66154,-30.66134 0,-16.933346 13.72734,-30.661208 30.66154,-30.661208 16.93425,0 30.66098,13.727862 30.66098,30.661208 z"
   style="fill:none;stroke:#cccccc;stroke-width:0.99910998;stroke-linecap:square;stroke-linejoin:miter;stroke-miterlimit:10;stroke-opacity:1;stroke-dasharray:none"
   id="path3469"
   inkscape:connector-curvature="0" /><g
   id="g3471"
   transform="matrix(0.99911,0,0,-0.99911,204.73752,1055.2747)"><text
   transform="matrix(1,0,0,-1,333.78757,0)"
   id="text3473"><tspan
     style="font-size:41px;font-variant:normal;font-weight:normal;writing-mode:lr-tb;fill:#000000;fill-opacity:1;fill-rule:nonzero;stroke:none;font-family:Helvetica;-inkscape-font-specification:Helvetica"
     x="0 27.347 50.143002 70.642998 91.142998"
     y="0"
     sodipodi:role="line"
     id="tspan3475">Pucci</tspan></text>


</g><path
   d="m 610.24719,1001.8149 c 0,5.2424 -4.2493,9.4916 -9.49154,9.4916 -5.24225,0 -9.49155,-4.2492 -9.49155,-9.4916 0,-5.24236 4.2493,-9.49157 9.49155,-9.49157 5.24224,0 9.49154,4.24921 9.49154,9.49157 z"
   style="fill:#cccccc;fill-opacity:1;fill-rule:nonzero;stroke:none"
   id="path3477"
   inkscape:connector-curvature="0" /><path
   d="m 610.24719,1001.8149 c 0,5.2424 -4.2493,9.4916 -9.49154,9.4916 -5.24225,0 -9.49155,-4.2492 -9.49155,-9.4916 0,-5.24236 4.2493,-9.49157 9.49155,-9.49157 5.24224,0 9.49154,4.24921 9.49154,9.49157 z"
   style="fill:none;stroke:#cccccc;stroke-width:0.99910998;stroke-linecap:square;stroke-linejoin:miter;stroke-miterlimit:10;stroke-opacity:1;stroke-dasharray:none"
   id="path3479"
   inkscape:connector-curvature="0" /><text
   sodipodi:linespacing="125%"
   id="text4029"
   y="-66.341248"
   x="499.99167"
   style="font-size:62.09733582px;font-style:normal;font-weight:normal;line-height:125%;letter-spacing:0px;word-spacing:0px;fill:#000000;fill-opacity:1;stroke:none;font-family:Sans"
   xml:space="preserve"><tspan
     style="font-size:74.51680756px;font-weight:bold;-inkscape-font-specification:Sans Bold"
     y="-66.341248"
     x="499.99167"
     id="tspan4031"
     sodipodi:role="line">Families of Florence, Italy</tspan></text>

<g
   transform="translate(-90.041142,4.2116721e-7)"
   id="g5543"><g
     id="g5212"
     transform="translate(-105.56548,9.3146003)"><g
       transform="translate(0,-7.2395228e-6)"
       id="g5181"><rect
   style="fill:#2ef029;fill-opacity:1"
   id="rect4873-8"
   width="190.24506"
   height="9.3146009"
   x="1735.1064"
   y="1031.8519" /><text
   xml:space="preserve"
   style="font-size:62.09733582px;font-style:normal;font-weight:normal;line-height:125%;letter-spacing:0px;word-spacing:0px;fill:#000000;fill-opacity:1;stroke:none;font-family:Sans"
   x="1960.4584"
   y="1044.3547"
   id="text4971"
   sodipodi:linespacing="125%"><tspan
     sodipodi:role="line"
     id="tspan4973"
     x="1960.4584"
     y="1044.3547"
     style="font-size:31.04866791px">Business and marriage relationship</tspan></text>


</g><g
       transform="translate(0,-5.9706767e-6)"
       id="g5171"><rect
   style="fill:#6db6f3;fill-opacity:1"
   id="rect4873-1"
   width="190.24506"
   height="1.5524335"
   x="1735.1064"
   y="936.81506" /><text
   xml:space="preserve"
   style="font-size:62.09733582px;font-style:normal;font-weight:normal;line-height:125%;letter-spacing:0px;word-spacing:0px;fill:#000000;fill-opacity:1;stroke:none;font-family:Sans"
   x="1956.14"
   y="945.61877"
   id="text4971-5"
   sodipodi:linespacing="125%"><tspan
     sodipodi:role="line"
     id="tspan4973-1"
     x="1956.14"
     y="945.61877"
     style="font-size:31.04866791px">Business relationship</tspan></text>


</g><g
       transform="translate(0,0.22352415)"
       id="g5176"><rect
   style="fill:#ffdc59;fill-opacity:1"
   id="rect4873-0"
   width="190.24506"
   height="2.3286502"
   x="1735.1064"
   y="985.57141" /><text
   xml:space="preserve"
   style="font-size:62.09733582px;font-style:normal;font-weight:normal;line-height:125%;letter-spacing:0px;word-spacing:0px;fill:#000000;fill-opacity:1;stroke:none;font-family:Sans"
   x="1956.0793"
   y="994.5813"
   id="text4971-5-0"
   sodipodi:linespacing="125%"><tspan
     sodipodi:role="line"
     id="tspan4973-1-4"
     x="1956.0793"
     y="994.5813"
     style="font-size:31.04866791px">Marriage relationship</tspan></text>


</g></g><g
     id="g5519"><text
   sodipodi:linespacing="125%"
   id="text5021"
   y="610.23328"
   x="1622.686"
   style="font-size:62.09733582px;font-style:normal;font-weight:normal;line-height:125%;letter-spacing:0px;word-spacing:0px;fill:#000000;fill-opacity:1;stroke:none;font-family:Sans"
   xml:space="preserve"><tspan
     style="font-size:31.04866791px"
     y="610.23328"
     x="1622.686"
     id="tspan5023"
     sodipodi:role="line">Wealth (thousands of lira)</tspan></text>


<path
   d="m 1722.4765,679.73208 c 0,27.31307 -22.1414,49.45595 -49.456,49.45595 -27.3146,0 -49.456,-22.14288 -49.456,-49.45595 0,-27.31313 22.1414,-49.45594 49.456,-49.45594 27.3146,0 49.456,22.14281 49.456,49.45594 z"
   style="fill:#cccccc;fill-opacity:1;stroke:#000000;stroke-width:0.99910998;stroke-linecap:square;stroke-linejoin:miter;stroke-miterlimit:10;stroke-opacity:1;stroke-dasharray:none"
   id="path3399-1"
   inkscape:connector-curvature="0" /><text
   sodipodi:linespacing="125%"
   id="text5021-4"
   y="761.85223"
   x="1646.1259"
   style="font-size:62.09733582px;font-style:normal;font-weight:normal;line-height:125%;letter-spacing:0px;word-spacing:0px;fill:#000000;fill-opacity:1;stroke:none;font-family:Sans"
   xml:space="preserve"><tspan
     style="font-size:31.04866791px"
     y="761.85223"
     x="1646.1259"
     id="tspan5023-0"
     sodipodi:role="line">146</tspan></text>


<path
   d="m 1842.9437,689.9092 c 0,16.01771 -12.9853,29.00378 -29.0044,29.00378 -16.0188,0 -29.0042,-12.98607 -29.0042,-29.00378 0,-16.01869 12.9854,-29.00475 29.0042,-29.00475 16.0191,0 29.0044,12.98606 29.0044,29.00475 z"
   style="fill:#cccccc;fill-opacity:1;stroke:#585858;stroke-width:0.99910998;stroke-linecap:square;stroke-linejoin:miter;stroke-miterlimit:10;stroke-opacity:1;stroke-dasharray:none"
   id="path3339-0"
   inkscape:connector-curvature="0" /><text
   sodipodi:linespacing="125%"
   id="text5021-4-9"
   y="761.85223"
   x="1797.1492"
   style="font-size:62.09733582px;font-style:normal;font-weight:normal;line-height:125%;letter-spacing:0px;word-spacing:0px;fill:#000000;fill-opacity:1;stroke:none;font-family:Sans"
   xml:space="preserve"><tspan
     style="font-size:31.04866791px"
     y="761.85223"
     x="1797.1492"
     id="tspan5023-0-7"
     sodipodi:role="line">49</tspan></text>


<path
   d="m 1924.3853,692.41784 c 0,5.24233 -4.2493,9.49154 -9.4915,9.49154 -5.2423,0 -9.4916,-4.24921 -9.4916,-9.49154 0,-5.24234 4.2493,-9.49155 9.4916,-9.49155 5.2422,0 9.4915,4.24921 9.4915,9.49155 z"
   style="fill:#cccccc;fill-opacity:1;stroke:#cccccc;stroke-width:0.99910998;stroke-linecap:square;stroke-linejoin:miter;stroke-miterlimit:10;stroke-opacity:1;stroke-dasharray:none"
   id="path3479-5"
   inkscape:connector-curvature="0" /><text
   sodipodi:linespacing="125%"
   id="text5021-4-0"
   y="761.8371"
   x="1906.3129"
   style="font-size:62.09733582px;font-style:normal;font-weight:normal;line-height:125%;letter-spacing:0px;word-spacing:0px;fill:#000000;fill-opacity:1;stroke:none;font-family:Sans"
   xml:space="preserve"><tspan
     style="font-size:31.04866791px"
     y="761.8371"
     x="1906.3129"
     id="tspan5023-0-76"
     sodipodi:role="line">3</tspan></text>


</g><g
     id="g5532"><g
       transform="translate(-105.77234,-25.241326)"
       id="g5159"><text
   xml:space="preserve"
   style="font-size:62.09733582px;font-style:normal;font-weight:normal;line-height:125%;letter-spacing:0px;word-spacing:0px;fill:#000000;fill-opacity:1;stroke:none;font-family:Sans"
   x="1958.6849"
   y="869.02539"
   id="text5017"
   sodipodi:linespacing="125%"><tspan
     sodipodi:role="line"
     id="tspan5019"
     x="1958.6849"
     y="869.02539"
     style="font-size:31.04866791px">Number of priorates</tspan></text>


<g
   id="g5152"><rect
   transform="scale(-1,1)"
   y="840.21136"
   x="-1925.5583"
   height="30.894493"
   width="190.24504"
   id="rect4873"
   style="fill:url(#linearGradient3304);fill-opacity:1" /><text
   sodipodi:linespacing="125%"
   id="text5021-4-0-1"
   y="904.8316"
   x="1909.7762"
   style="font-size:62.09733582px;font-style:normal;font-weight:normal;line-height:125%;letter-spacing:0px;word-spacing:0px;fill:#000000;fill-opacity:1;stroke:none;font-family:Sans"
   xml:space="preserve"><tspan
     style="font-size:31.04866791px"
     y="904.8316"
     x="1909.7762"
     id="tspan5023-0-76-3"
     sodipodi:role="line">0</tspan></text>


<text
   sodipodi:linespacing="125%"
   id="text5021-4-0-2"
   y="905.21063"
   x="1733.8428"
   style="font-size:62.09733582px;font-style:normal;font-weight:normal;line-height:125%;letter-spacing:0px;word-spacing:0px;fill:#000000;fill-opacity:1;stroke:none;font-family:Sans"
   xml:space="preserve"><tspan
     style="font-size:31.04866791px"
     y="905.21063"
     x="1733.8428"
     id="tspan5023-0-76-7"
     sodipodi:role="line">74</tspan></text>


</g></g></g></g><text
   sodipodi:linespacing="125%"
   id="text5586"
   y="1107.9445"
   x="1536.4934"
   style="font-size:62.09733582px;font-style:normal;font-weight:normal;line-height:125%;letter-spacing:0px;word-spacing:0px;fill:#000000;fill-opacity:1;stroke:none;font-family:Sans"
   xml:space="preserve"><tspan
     style="font-size:31.04866791px"
     y="1107.9445"
     x="1536.4934"
     id="tspan5588"
     sodipodi:role="line">Source: Sci2 sample data</tspan></text>

</g>
</g></svg>