<?xml version="1.0" encoding="UTF-8" standalone="no"?>
<!-- Created with Inkscape (http://www.inkscape.org/) -->

<svg
   xmlns:dc="http://purl.org/dc/elements/1.1/"
   xmlns:cc="http://creativecommons.org/ns#"
   xmlns:rdf="http://www.w3.org/1999/02/22-rdf-syntax-ns#"
   xmlns:svg="http://www.w3.org/2000/svg"
   xmlns="http://www.w3.org/2000/svg"
   xmlns:sodipodi="http://sodipodi.sourceforge.net/DTD/sodipodi-0.dtd"
   xmlns:inkscape="http://www.inkscape.org/namespaces/inkscape"
   id="svg2"
   version="1.1"
   inkscape:version="0.48.5 r10040"
   width="893.75"
   height="749.15002"
   xml:space="preserve"
   sodipodi:docname="i005.svg"><metadata
     id="metadata8"><rdf:RDF><cc:Work
         rdf:about=""><dc:format>image/svg+xml</dc:format><dc:type
           rdf:resource="http://purl.org/dc/dcmitype/StillImage" /><dc:title></dc:title></cc:Work></rdf:RDF></metadata><defs
     id="defs6"><clipPath
       clipPathUnits="userSpaceOnUse"
       id="clipPath24"><path
         d="m 0,519.322 555,0 L 555,0 0,0 0,519.322 z"
         id="path26"
         inkscape:connector-curvature="0" /></clipPath></defs><sodipodi:namedview
     pagecolor="#ffffff"
     bordercolor="#666666"
     borderopacity="1"
     objecttolerance="10"
     gridtolerance="10"
     guidetolerance="10"
     inkscape:pageopacity="0"
     inkscape:pageshadow="2"
     inkscape:window-width="1366"
     inkscape:window-height="716"
     id="namedview4"
     showgrid="false"
     inkscape:zoom="0.45216563"
     inkscape:cx="563.24678"
     inkscape:cy="376.39678"
     inkscape:window-x="-8"
     inkscape:window-y="-8"
     inkscape:window-maximized="1"
     inkscape:current-layer="g10" /><g
     id="g10"
     inkscape:groupmode="layer"
     inkscape:label="i005"
     transform="matrix(1.25,0,0,-1.25,0,749.14995)">



<g
   id="g16"
   transform="translate(443.9676,360.5638)"><path
     d="M 0,0 98.611,53.152 M 0,0 25.178,125.188 M -93.715,-67.838 0,0 m -202.817,-62.944 118.194,221.002 m -118.194,-221.002 -2.099,190.23 m 2.099,-190.23 -79.029,114.697 m 79.029,-114.697 -109.802,30.073 m 109.802,-30.073 -96.514,-83.924 m 96.514,83.924 -12.589,-188.83 m 12.589,188.83 107.004,-226.596 m 2.098,221.702 -109.102,4.894 m 200.719,-70.637 123.789,-2.097 m -215.406,67.84 91.617,-65.743"
     style="fill:none;stroke:#279546;stroke-width:0.699;stroke-linecap:butt;stroke-linejoin:miter;stroke-miterlimit:10;stroke-opacity:1;stroke-dasharray:none"
     id="path18"
     inkscape:connector-curvature="0" /></g><g
   id="g20"
   transform="translate(75.2,51.2)"><g
     id="g22"
     clip-path="url(#clipPath24)"><g
       id="g28"
       transform="translate(277.5,241.875)"><path
         d="m 0,0 c 0,-1.932 -1.566,-3.498 -3.497,-3.498 -1.931,0 -3.497,1.566 -3.497,3.498 0,1.93 1.566,3.496 3.497,3.496 C -1.566,3.496 0,1.93 0,0"
         style="fill:#ffffff;fill-opacity:1;fill-rule:nonzero;stroke:none"
         id="path30"
         inkscape:connector-curvature="0" /></g><g
       id="g32"
       transform="translate(277.8496,241.5254)"><path
         d="m 0,0 c 0,-1.932 -1.566,-3.498 -3.497,-3.498 -1.931,0 -3.497,1.566 -3.497,3.498 0,1.93 1.566,3.496 3.497,3.496 C -1.566,3.496 0,1.93 0,0"
         style="fill:#d44400;fill-opacity:1;fill-rule:nonzero;stroke:none"
         id="path34"
         inkscape:connector-curvature="0" /></g><g
       id="g36"
       transform="translate(277.8496,241.5254)"><path
         d="m 0,0 c 0,-1.932 -1.566,-3.498 -3.497,-3.498 -1.931,0 -3.497,1.566 -3.497,3.498 0,1.93 1.566,3.496 3.497,3.496 C -1.566,3.496 0,1.93 0,0 z"
         style="fill:none;stroke:#ff4300;stroke-width:0.699;stroke-linecap:butt;stroke-linejoin:miter;stroke-miterlimit:10;stroke-opacity:1;stroke-dasharray:none"
         id="path38"
         inkscape:connector-curvature="0" /></g><g
       id="g40"
       transform="translate(369.8174,176.1328)"><path
         d="m 0,0 c 0,-1.93 -1.566,-3.496 -3.497,-3.496 -1.931,0 -3.497,1.566 -3.497,3.496 0,1.932 1.566,3.498 3.497,3.498 C -1.566,3.498 0,1.932 0,0"
         style="fill:#ffffff;fill-opacity:1;fill-rule:nonzero;stroke:none"
         id="path42"
         inkscape:connector-curvature="0" /></g><g
       id="g44"
       transform="translate(370.167,175.7832)"><path
         d="m 0,0 c 0,-1.93 -1.566,-3.496 -3.497,-3.496 -1.931,0 -3.497,1.566 -3.497,3.496 0,1.932 1.566,3.498 3.497,3.498 C -1.566,3.498 0,1.932 0,0"
         style="fill:#f2de25;fill-opacity:1;fill-rule:nonzero;stroke:none"
         id="path46"
         inkscape:connector-curvature="0" /></g><g
       id="g48"
       transform="translate(370.167,175.7832)"><path
         d="m 0,0 c 0,-1.93 -1.566,-3.496 -3.497,-3.496 -1.931,0 -3.497,1.566 -3.497,3.496 0,1.932 1.566,3.498 3.497,3.498 C -1.566,3.498 0,1.932 0,0 z"
         style="fill:none;stroke:#000000;stroke-width:0.699;stroke-linecap:butt;stroke-linejoin:miter;stroke-miterlimit:10;stroke-opacity:1;stroke-dasharray:none"
         id="path50"
         inkscape:connector-curvature="0" /></g><g
       id="g52"
       transform="translate(493.6055,174.0352)"><path
         d="m 0,0 c 0,-1.932 -1.565,-3.496 -3.496,-3.496 -1.932,0 -3.497,1.564 -3.497,3.496 0,1.932 1.565,3.498 3.497,3.498 C -1.565,3.498 0,1.932 0,0"
         style="fill:#ffffff;fill-opacity:1;fill-rule:nonzero;stroke:none"
         id="path54"
         inkscape:connector-curvature="0" /></g><g
       id="g56"
       transform="translate(493.9551,173.6855)"><path
         d="m 0,0 c 0,-1.932 -1.565,-3.496 -3.496,-3.496 -1.932,0 -3.497,1.564 -3.497,3.496 0,1.932 1.565,3.496 3.497,3.496 C -1.565,3.496 0,1.932 0,0"
         style="fill:#0d3f1e;fill-opacity:1;fill-rule:nonzero;stroke:none"
         id="path58"
         inkscape:connector-curvature="0" /></g><g
       id="g60"
       transform="translate(493.9551,173.6855)"><path
         d="m 0,0 c 0,-1.932 -1.565,-3.496 -3.496,-3.496 -1.932,0 -3.497,1.564 -3.497,3.496 0,1.932 1.565,3.496 3.497,3.496 C -1.565,3.496 0,1.932 0,0 z"
         style="fill:none;stroke:#d4de25;stroke-width:0.699;stroke-linecap:butt;stroke-linejoin:miter;stroke-miterlimit:10;stroke-opacity:1;stroke-dasharray:none"
         id="path62"
         inkscape:connector-curvature="0" /></g><g
       id="g64"
       transform="translate(169.0977,246.7695)"><path
         d="m 0,0 c 0,-1.93 -1.566,-3.496 -3.497,-3.496 -1.931,0 -3.497,1.566 -3.497,3.496 0,1.932 1.566,3.498 3.497,3.498 C -1.566,3.498 0,1.932 0,0"
         style="fill:#ffffff;fill-opacity:1;fill-rule:nonzero;stroke:none"
         id="path66"
         inkscape:connector-curvature="0" /></g><g
       id="g68"
       transform="translate(169.4473,246.4199)"><path
         d="m 0,0 c 0,-1.93 -1.566,-3.496 -3.497,-3.496 -1.931,0 -3.497,1.566 -3.497,3.496 0,1.932 1.566,3.498 3.497,3.498 C -1.566,3.498 0,1.932 0,0"
         style="fill:#f2de25;fill-opacity:1;fill-rule:nonzero;stroke:none"
         id="path70"
         inkscape:connector-curvature="0" /></g><g
       id="g72"
       transform="translate(169.4473,246.4199)"><path
         d="m 0,0 c 0,-1.93 -1.566,-3.496 -3.497,-3.496 -1.931,0 -3.497,1.566 -3.497,3.496 0,1.932 1.566,3.498 3.497,3.498 C -1.566,3.498 0,1.932 0,0 z"
         style="fill:none;stroke:#000000;stroke-width:0.699;stroke-linecap:butt;stroke-linejoin:miter;stroke-miterlimit:10;stroke-opacity:1;stroke-dasharray:none"
         id="path74"
         inkscape:connector-curvature="0" /></g><g
       id="g76"
       transform="translate(276.1011,20.1738)"><path
         d="m 0,0 c 0,-1.932 -1.566,-3.496 -3.497,-3.496 -1.931,0 -3.497,1.564 -3.497,3.496 0,1.932 1.566,3.496 3.497,3.496 C -1.566,3.496 0,1.932 0,0"
         style="fill:#0d3f1e;fill-opacity:1;fill-rule:nonzero;stroke:none"
         id="path78"
         inkscape:connector-curvature="0" /></g><g
       id="g80"
       transform="translate(276.1011,20.1738)"><path
         d="m 0,0 c 0,-1.932 -1.566,-3.496 -3.497,-3.496 -1.931,0 -3.497,1.564 -3.497,3.496 0,1.932 1.566,3.496 3.497,3.496 C -1.566,3.496 0,1.932 0,0 z"
         style="fill:none;stroke:#d4de25;stroke-width:1;stroke-linecap:butt;stroke-linejoin:miter;stroke-miterlimit:10;stroke-opacity:1;stroke-dasharray:none"
         id="path82"
         inkscape:connector-curvature="0" /></g><g
       id="g84"
       transform="translate(156.5088,57.9395)"><path
         d="m 0,0 c 0,-1.93 -1.566,-3.496 -3.497,-3.496 -1.931,0 -3.497,1.566 -3.497,3.496 0,1.932 1.566,3.498 3.497,3.498 C -1.566,3.498 0,1.932 0,0"
         style="fill:#0d3f1e;fill-opacity:1;fill-rule:nonzero;stroke:none"
         id="path86"
         inkscape:connector-curvature="0" /></g><g
       id="g88"
       transform="translate(156.8584,57.5898)"><path
         d="m 0,0 c 0,-1.932 -1.566,-3.496 -3.497,-3.496 -1.931,0 -3.497,1.564 -3.497,3.496 0,1.932 1.566,3.498 3.497,3.498 C -1.566,3.498 0,1.932 0,0 z"
         style="fill:none;stroke:#d4de25;stroke-width:1;stroke-linecap:butt;stroke-linejoin:miter;stroke-miterlimit:10;stroke-opacity:1;stroke-dasharray:none"
         id="path90"
         inkscape:connector-curvature="0" /></g><g
       id="g92"
       transform="translate(72.584,162.8457)"><path
         d="m 0,0 c 0,-1.932 -1.565,-3.498 -3.497,-3.498 -1.931,0 -3.497,1.566 -3.497,3.498 0,1.932 1.566,3.496 3.497,3.496 C -1.565,3.496 0,1.932 0,0"
         style="fill:#ffffff;fill-opacity:1;fill-rule:nonzero;stroke:none"
         id="path94"
         inkscape:connector-curvature="0" /></g><g
       id="g96"
       transform="translate(72.9341,162.4961)"><path
         d="m 0,0 c 0,-1.932 -1.566,-3.498 -3.497,-3.498 -1.931,0 -3.497,1.566 -3.497,3.498 0,1.93 1.566,3.496 3.497,3.496 C -1.566,3.496 0,1.93 0,0"
         style="fill:#0d3f1e;fill-opacity:1;fill-rule:nonzero;stroke:none"
         id="path98"
         inkscape:connector-curvature="0" /></g><g
       id="g100"
       transform="translate(72.9341,162.4961)"><path
         d="m 0,0 c 0,-1.932 -1.566,-3.498 -3.497,-3.498 -1.931,0 -3.497,1.566 -3.497,3.498 0,1.93 1.566,3.496 3.497,3.496 C -1.566,3.496 0,1.93 0,0 z"
         style="fill:none;stroke:#d4de25;stroke-width:0.699;stroke-linecap:butt;stroke-linejoin:miter;stroke-miterlimit:10;stroke-opacity:1;stroke-dasharray:none"
         id="path102"
         inkscape:connector-curvature="0" /></g><g
       id="g104"
       transform="translate(59.2959,276.8428)"><path
         d="m 0,0 c 0,-1.931 -1.565,-3.497 -3.497,-3.497 -1.931,0 -3.497,1.566 -3.497,3.497 0,1.931 1.566,3.497 3.497,3.497 C -1.565,3.497 0,1.931 0,0"
         style="fill:#ffffff;fill-opacity:1;fill-rule:nonzero;stroke:none"
         id="path106"
         inkscape:connector-curvature="0" /></g><g
       id="g108"
       transform="translate(59.646,276.4932)"><path
         d="m 0,0 c 0,-1.931 -1.566,-3.497 -3.497,-3.497 -1.931,0 -3.497,1.566 -3.497,3.497 0,1.931 1.566,3.497 3.497,3.497 C -1.566,3.497 0,1.931 0,0"
         style="fill:#0d3f1e;fill-opacity:1;fill-rule:nonzero;stroke:none"
         id="path110"
         inkscape:connector-curvature="0" /></g><g
       id="g112"
       transform="translate(59.646,276.4932)"><path
         d="m 0,0 c 0,-1.931 -1.566,-3.497 -3.497,-3.497 -1.931,0 -3.497,1.566 -3.497,3.497 0,1.931 1.566,3.497 3.497,3.497 C -1.566,3.497 0,1.931 0,0 z"
         style="fill:none;stroke:#d4de25;stroke-width:0.699;stroke-linecap:butt;stroke-linejoin:miter;stroke-miterlimit:10;stroke-opacity:1;stroke-dasharray:none"
         id="path114"
         inkscape:connector-curvature="0" /></g><g
       id="g116"
       transform="translate(90.0684,361.4668)"><path
         d="m 0,0 c 0,-1.931 -1.565,-3.497 -3.497,-3.497 -1.931,0 -3.497,1.566 -3.497,3.497 0,1.931 1.566,3.497 3.497,3.497 C -1.565,3.497 0,1.931 0,0"
         style="fill:#ffffff;fill-opacity:1;fill-rule:nonzero;stroke:none"
         id="path118"
         inkscape:connector-curvature="0" /></g><g
       id="g120"
       transform="translate(90.418,361.1172)"><path
         d="m 0,0 c 0,-1.931 -1.565,-3.497 -3.497,-3.497 -1.931,0 -3.497,1.566 -3.497,3.497 0,1.931 1.566,3.497 3.497,3.497 C -1.565,3.497 0,1.931 0,0"
         style="fill:#0d3f1e;fill-opacity:1;fill-rule:nonzero;stroke:none"
         id="path122"
         inkscape:connector-curvature="0" /></g><g
       id="g124"
       transform="translate(90.418,361.1172)"><path
         d="m 0,0 c 0,-1.931 -1.565,-3.497 -3.497,-3.497 -1.931,0 -3.497,1.566 -3.497,3.497 0,1.931 1.566,3.497 3.497,3.497 C -1.565,3.497 0,1.931 0,0 z"
         style="fill:none;stroke:#d4de25;stroke-width:0.699;stroke-linecap:butt;stroke-linejoin:miter;stroke-miterlimit:10;stroke-opacity:1;stroke-dasharray:none"
         id="path126"
         inkscape:connector-curvature="0" /></g><g
       id="g128"
       transform="translate(166.9995,436.999)"><path
         d="m 0,0 c 0,-1.931 -1.566,-3.497 -3.497,-3.497 -1.931,0 -3.497,1.566 -3.497,3.497 0,1.931 1.566,3.497 3.497,3.497 C -1.566,3.497 0,1.931 0,0"
         style="fill:#ffffff;fill-opacity:1;fill-rule:nonzero;stroke:none"
         id="path130"
         inkscape:connector-curvature="0" /></g><g
       id="g132"
       transform="translate(167.3491,436.6494)"><path
         d="m 0,0 c 0,-1.931 -1.566,-3.497 -3.497,-3.497 -1.931,0 -3.497,1.566 -3.497,3.497 0,1.931 1.566,3.497 3.497,3.497 C -1.566,3.497 0,1.931 0,0"
         style="fill:#0d3f1e;fill-opacity:1;fill-rule:nonzero;stroke:none"
         id="path134"
         inkscape:connector-curvature="0" /></g><g
       id="g136"
       transform="translate(167.3491,436.6494)"><path
         d="m 0,0 c 0,-1.931 -1.566,-3.497 -3.497,-3.497 -1.931,0 -3.497,1.566 -3.497,3.497 0,1.931 1.566,3.497 3.497,3.497 C -1.566,3.497 0,1.931 0,0 z"
         style="fill:none;stroke:#d4de25;stroke-width:0.699;stroke-linecap:butt;stroke-linejoin:miter;stroke-miterlimit:10;stroke-opacity:1;stroke-dasharray:none"
         id="path138"
         inkscape:connector-curvature="0" /></g><g
       id="g140"
       transform="translate(287.291,467.7715)"><path
         d="m 0,0 c 0,-1.931 -1.565,-3.497 -3.497,-3.497 -1.931,0 -3.496,1.566 -3.496,3.497 0,1.931 1.565,3.497 3.496,3.497 C -1.565,3.497 0,1.931 0,0"
         style="fill:#ffffff;fill-opacity:1;fill-rule:nonzero;stroke:none"
         id="path142"
         inkscape:connector-curvature="0" /></g><g
       id="g144"
       transform="translate(287.6406,467.4219)"><path
         d="m 0,0 c 0,-1.931 -1.565,-3.497 -3.496,-3.497 -1.932,0 -3.497,1.566 -3.497,3.497 0,1.931 1.565,3.497 3.497,3.497 C -1.565,3.497 0,1.931 0,0"
         style="fill:#0d3f1e;fill-opacity:1;fill-rule:nonzero;stroke:none"
         id="path146"
         inkscape:connector-curvature="0" /></g><g
       id="g148"
       transform="translate(287.6406,467.4219)"><path
         d="m 0,0 c 0,-1.931 -1.565,-3.497 -3.496,-3.497 -1.932,0 -3.497,1.566 -3.497,3.497 0,1.931 1.565,3.497 3.497,3.497 C -1.565,3.497 0,1.931 0,0 z"
         style="fill:none;stroke:#d4de25;stroke-width:0.699;stroke-linecap:butt;stroke-linejoin:miter;stroke-miterlimit:10;stroke-opacity:1;stroke-dasharray:none"
         id="path150"
         inkscape:connector-curvature="0" /></g><g
       id="g152"
       transform="translate(371.915,309.7134)"><path
         d="m 0,0 c 0,-1.931 -1.565,-3.497 -3.497,-3.497 -1.931,0 -3.496,1.566 -3.496,3.497 0,1.931 1.565,3.497 3.496,3.497 C -1.565,3.497 0,1.931 0,0"
         style="fill:#ffffff;fill-opacity:1;fill-rule:nonzero;stroke:none"
         id="path154"
         inkscape:connector-curvature="0" /></g><g
       id="g156"
       transform="translate(372.2646,309.3638)"><path
         d="m 0,0 c 0,-1.931 -1.565,-3.497 -3.497,-3.497 -1.931,0 -3.496,1.566 -3.496,3.497 0,1.931 1.565,3.497 3.496,3.497 C -1.565,3.497 0,1.931 0,0"
         style="fill:#f2de25;fill-opacity:1;fill-rule:nonzero;stroke:none"
         id="path158"
         inkscape:connector-curvature="0" /></g><g
       id="g160"
       transform="translate(372.2646,309.3638)"><path
         d="m 0,0 c 0,-1.931 -1.565,-3.497 -3.497,-3.497 -1.931,0 -3.496,1.566 -3.496,3.497 0,1.931 1.565,3.497 3.496,3.497 C -1.565,3.497 0,1.931 0,0 z"
         style="fill:none;stroke:#000000;stroke-width:0.699;stroke-linecap:butt;stroke-linejoin:miter;stroke-miterlimit:10;stroke-opacity:1;stroke-dasharray:none"
         id="path162"
         inkscape:connector-curvature="0" /></g><g
       id="g164"
       transform="translate(397.0928,434.9009)"><path
         d="m 0,0 c 0,-1.931 -1.566,-3.497 -3.497,-3.497 -1.931,0 -3.497,1.566 -3.497,3.497 0,1.931 1.566,3.497 3.497,3.497 C -1.566,3.497 0,1.931 0,0"
         style="fill:#0d3f1e;fill-opacity:1;fill-rule:nonzero;stroke:none"
         id="path166"
         inkscape:connector-curvature="0" /></g><g
       id="g168"
       transform="translate(397.4424,434.5513)"><path
         d="m 0,0 c 0,-1.931 -1.566,-3.497 -3.497,-3.497 -1.931,0 -3.497,1.566 -3.497,3.497 0,1.931 1.566,3.497 3.497,3.497 C -1.566,3.497 0,1.931 0,0"
         style="fill:#000000;fill-opacity:1;fill-rule:nonzero;stroke:none"
         id="path170"
         inkscape:connector-curvature="0" /></g><g
       id="g172"
       transform="translate(397.4424,434.5513)"><path
         d="m 0,0 c 0,-1.931 -1.566,-3.497 -3.497,-3.497 -1.931,0 -3.497,1.566 -3.497,3.497 0,1.931 1.566,3.497 3.497,3.497 C -1.566,3.497 0,1.931 0,0 z"
         style="fill:none;stroke:#d4de25;stroke-width:1;stroke-linecap:butt;stroke-linejoin:miter;stroke-miterlimit:10;stroke-opacity:1;stroke-dasharray:none"
         id="path174"
         inkscape:connector-curvature="0" /></g><g
       id="g176"
       transform="translate(470.5264,362.8657)"><path
         d="m 0,0 c 0,-1.931 -1.565,-3.497 -3.497,-3.497 -1.931,0 -3.496,1.566 -3.496,3.497 0,1.931 1.565,3.497 3.496,3.497 C -1.565,3.497 0,1.931 0,0"
         style="fill:#ffffff;fill-opacity:1;fill-rule:nonzero;stroke:none"
         id="path178"
         inkscape:connector-curvature="0" /></g><g
       id="g180"
       transform="translate(470.876,362.5161)"><path
         d="m 0,0 c 0,-1.931 -1.565,-3.497 -3.497,-3.497 -1.931,0 -3.496,1.566 -3.496,3.497 0,1.931 1.565,3.497 3.496,3.497 C -1.565,3.497 0,1.931 0,0"
         style="fill:#0d3f1e;fill-opacity:1;fill-rule:nonzero;stroke:none"
         id="path182"
         inkscape:connector-curvature="0" /></g><g
       id="g184"
       transform="translate(470.876,362.5161)"><path
         d="m 0,0 c 0,-1.931 -1.565,-3.497 -3.497,-3.497 -1.931,0 -3.496,1.566 -3.496,3.497 0,1.931 1.565,3.497 3.496,3.497 C -1.565,3.497 0,1.931 0,0 z"
         style="fill:none;stroke:#d4de25;stroke-width:0.699;stroke-linecap:butt;stroke-linejoin:miter;stroke-miterlimit:10;stroke-opacity:1;stroke-dasharray:none"
         id="path186"
         inkscape:connector-curvature="0" /></g></g></g><text
   transform="scale(1,-1)"
   id="text188"
   x="305.20001"
   y="-273.46759"><tspan
     style="font-size:14px;font-variant:normal;font-weight:normal;font-stretch:normal;writing-mode:lr-tb;fill:#541d00;fill-opacity:1;fill-rule:nonzero;stroke:none;font-family:Georgia;-inkscape-font-specification:Georgia"
     x="305.20001 318.17801 326.228 332.28439 337.11441 344.17041 349.9104 357.94641 361.3204 365.87039 372.92639 385.26041 389.3624 393.36639"
     y="-273.46759"
     sodipodi:role="line"
     id="tspan190">Mustard family</tspan></text>
<text
   transform="scale(1,-1)"
   id="text192"
   x="393.867"
   y="-364.85529"><tspan
     style="font-size:10px;font-variant:normal;font-weight:normal;font-stretch:normal;writing-mode:lr-tb;fill:#924a35;fill-opacity:1;fill-rule:nonzero;stroke:none;font-family:Georgia;-inkscape-font-specification:Georgia"
     x="393.867 400.88699 405.927 411.63699 417.457 422.49701 428.40701 434.15701"
     y="-364.85529"
     sodipodi:role="line"
     id="tspan194">Raphanus</tspan><tspan
     style="font-size:10px;font-variant:normal;font-weight:normal;font-stretch:normal;writing-mode:lr-tb;fill:#924a35;fill-opacity:1;fill-rule:nonzero;stroke:none;font-family:Georgia;-inkscape-font-specification:Georgia"
     x="217.867 224.407 228.507 233.547 237.867 242.18701 245.117 249.657"
     y="-283.5253"
     sodipodi:role="line"
     id="tspan196">Brassica</tspan><tspan
     style="font-size:10px;font-variant:normal;font-weight:normal;font-stretch:normal;writing-mode:lr-tb;fill:#8a920a;fill-opacity:1;fill-rule:nonzero;stroke:none;font-family:Georgia;-inkscape-font-specification:Georgia"
     x="312.19699 316.297 321.33701 327.047 331.87698 336.19699 341.02701 345.85699"
     y="-511.47528"
     sodipodi:role="line"
     id="tspan198">rapeseed</tspan><tspan
     style="font-size:10px;font-variant:normal;font-weight:normal;font-stretch:normal;writing-mode:lr-tb;fill:#8a920a;fill-opacity:1;fill-rule:nonzero;stroke:none;font-family:Georgia;-inkscape-font-specification:Georgia"
     x="479.66699 483.767 488.80701 494.547 497.47699 501.797"
     y="-483.5253"
     sodipodi:role="line"
     id="tspan200">radish</tspan><tspan
     style="font-size:10px;font-variant:normal;font-weight:normal;font-stretch:normal;writing-mode:lr-tb;fill:#8a920a;fill-opacity:1;fill-rule:nonzero;stroke:none;font-family:Georgia;-inkscape-font-specification:Georgia"
     x="519.867 525.60699 530.64697 533.57703 538.93701 544.32703"
     y="-420.85529"
     sodipodi:role="line"
     id="tspan202">daikon</tspan><tspan
     style="font-size:10px;font-variant:normal;font-weight:normal;font-stretch:normal;writing-mode:lr-tb;fill:#8a920a;fill-opacity:1;fill-rule:nonzero;stroke:none;font-family:Georgia;-inkscape-font-specification:Georgia"
     x="536.737 544.10699 549.14697 552.59698 557.427 561.52698 566.06702 570.16699 574.99701 579.31702"
     y="-235.5253"
     sodipodi:role="line"
     id="tspan204">watercress</tspan><tspan
     style="font-size:10px;font-variant:normal;font-weight:normal;font-stretch:normal;writing-mode:lr-tb;fill:#924a35;fill-opacity:1;fill-rule:nonzero;stroke:none;font-family:Georgia;-inkscape-font-specification:Georgia"
     x="404.53699 412.207 417.24701 421.56699 425.017 430.767 434.867 438.31699 441.24701 446.99701"
     y="-235.5253"
     sodipodi:role="line"
     id="tspan206">Nasturtium</tspan><tspan
     style="font-size:10px;font-variant:normal;font-weight:normal;font-stretch:normal;writing-mode:lr-tb;fill:#8a920a;fill-opacity:1;fill-rule:nonzero;stroke:none;font-family:Georgia;-inkscape-font-specification:Georgia"
     x="220.867 229.677 235.427 239.74701 243.19701 248.237 252.33701"
     y="-494.1853"
     sodipodi:role="line"
     id="tspan208">mustard</tspan><tspan
     style="font-size:10px;font-variant:normal;font-weight:normal;font-stretch:normal;writing-mode:lr-tb;fill:#8a920a;fill-opacity:1;fill-rule:nonzero;stroke:none;font-family:Georgia;-inkscape-font-specification:Georgia"
     x="144.63701 148.08701 153.83701 157.93701 163.847 166.77701"
     y="-420.85529"
     sodipodi:role="line"
     id="tspan210">turnip</tspan><tspan
     style="font-size:10px;font-variant:normal;font-weight:normal;font-stretch:normal;writing-mode:lr-tb;fill:#8a920a;fill-opacity:1;fill-rule:nonzero;stroke:none;font-family:Georgia;-inkscape-font-specification:Georgia"
     x="113.19698 118.557 123.59701 126.45699"
     y="-310.8653"
     sodipodi:role="line"
     id="tspan212">kale</tspan><tspan
     style="font-size:10px;font-variant:normal;font-weight:normal;font-stretch:normal;writing-mode:lr-tb;fill:#8a920a;fill-opacity:1;fill-rule:nonzero;stroke:none;font-family:Georgia;-inkscape-font-specification:Georgia"
     x="121.19698 125.73699 130.77701 136.52701 139.38701 142.317 145.567 148.427 153.817 161.18701 166.017"
     y="-198.31531"
     sodipodi:role="line"
     id="tspan214">cauliflower</tspan><tspan
     style="font-size:10px;font-variant:normal;font-weight:normal;font-stretch:normal;writing-mode:lr-tb;fill:#8a920a;fill-opacity:1;fill-rule:nonzero;stroke:none;font-family:Georgia;-inkscape-font-specification:Georgia"
     x="185.867 191.46701 195.567 200.957 205.49701 210.037 215.427 218.287"
     y="-105.1353"
     sodipodi:role="line"
     id="tspan216">broccoli</tspan><tspan
     style="font-size:10px;font-variant:normal;font-weight:normal;font-stretch:normal;writing-mode:lr-tb;fill:#8a920a;fill-opacity:1;fill-rule:nonzero;stroke:none;font-family:Georgia;-inkscape-font-specification:Georgia"
     x="299.19699 303.737 308.77701 314.37701 319.97699 325.017 330.10699"
     y="-71.015305"
     sodipodi:role="line"
     id="tspan218">cabbage</tspan></text>
<text
   xml:space="preserve"
   style="font-size:14.39999962px;font-style:normal;font-weight:bold;line-height:125%;letter-spacing:0px;word-spacing:0px;fill:#000000;fill-opacity:1;stroke:none;font-family:Sans;-inkscape-font-specification:Sans Bold"
   x="68.655304"
   y="-545.36786"
   id="text3089"
   sodipodi:linespacing="125%"
   transform="scale(1,-1)"><tspan
     sodipodi:role="line"
     id="tspan3091"
     x="68.655304"
     y="-545.36786">Radial tree visualization of selected vegetables in mustard family (Brassicaceae)</tspan></text>
<text
   xml:space="preserve"
   style="font-size:11.19999981px;font-style:normal;font-weight:normal;line-height:125%;letter-spacing:0px;word-spacing:0px;fill:#000000;fill-opacity:1;stroke:none;font-family:Sans"
   x="426.05762"
   y="-118.90995"
   id="text3311"
   sodipodi:linespacing="125%"
   transform="scale(1,-1)"><tspan
     sodipodi:role="line"
     id="tspan3313"
     x="426.05762"
     y="-118.90995"><tspan
   style="font-size:11.19999981px;font-weight:bold;-inkscape-font-specification:Sans Bold"
   id="tspan3317">Source</tspan>: Wikipedia</tspan><tspan
     sodipodi:role="line"
     x="426.05762"
     y="-104.90995"
     id="tspan3315"><tspan
   style="font-size:11.19999981px;font-weight:bold;-inkscape-font-specification:Sans Bold"
   id="tspan3319">Tools</tspan>: Sci2, Adobe Illustrator</tspan></text>
</g></svg>