<?xml version="1.0" encoding="UTF-8" standalone="no"?>
<!-- License Agreement at http://iconmonstr.com/license/ -->

<svg
   xmlns:dc="http://purl.org/dc/elements/1.1/"
   xmlns:cc="http://creativecommons.org/ns#"
   xmlns:rdf="http://www.w3.org/1999/02/22-rdf-syntax-ns#"
   xmlns:svg="http://www.w3.org/2000/svg"
   xmlns="http://www.w3.org/2000/svg"
   xmlns:sodipodi="http://sodipodi.sourceforge.net/DTD/sodipodi-0.dtd"
   xmlns:inkscape="http://www.inkscape.org/namespaces/inkscape"
   version="1.1"
   x="0px"
   y="0px"
   width="80"
   height="90"
   viewBox="0 0 80 90"
   xml:space="preserve"
   id="svg3100"
   inkscape:version="0.48.5 r10040"
   sodipodi:docname="githubicon.svg"><metadata
   id="metadata3107"><rdf:RDF><cc:Work
       rdf:about=""><dc:format>image/svg+xml</dc:format><dc:type
         rdf:resource="http://purl.org/dc/dcmitype/StillImage" /><dc:title></dc:title></cc:Work></rdf:RDF></metadata><defs
   id="defs3105">

</defs><sodipodi:namedview
   pagecolor="#ffffff"
   bordercolor="#666666"
   borderopacity="1"
   objecttolerance="10"
   gridtolerance="10"
   guidetolerance="10"
   inkscape:pageopacity="0"
   inkscape:pageshadow="2"
   inkscape:window-width="1366"
   inkscape:window-height="716"
   id="namedview3103"
   showgrid="false"
   inkscape:zoom="7.2334496"
   inkscape:cx="56.055184"
   inkscape:cy="26.699292"
   inkscape:window-x="-8"
   inkscape:window-y="-8"
   inkscape:window-maximized="1"
   inkscape:current-layer="svg3100" />
<path
   inkscape:connector-curvature="0"
   id="path3887"
   d="m 32.823689,56.568765 c -5.674216,-2.487075 -9.830555,-7.666297 -11.17329,-13.923057 -0.331085,-1.54276 -0.377471,-5.276989 -0.08453,-6.805261 1.116236,-5.823485 4.391716,-10.538583 9.333307,-13.435424 6.543847,-3.83611 14.896682,-3.355973 21.058387,1.210479 1.312049,0.972362 3.570465,3.307225 4.36682,4.514639 1.603418,2.431056 2.632924,4.980702 3.104009,7.687303 0.358423,2.0593 0.238814,5.788205 -0.244794,7.631588 -1.249875,4.764199 -4.007339,8.767869 -7.802575,11.328868 -1.548365,1.044825 -4.023567,2.246903 -4.856708,2.358651 -1.092776,0.146572 -1.165289,-0.09572 -1.165289,-3.893542 0,-3.417884 -0.153973,-4.433349 -0.79598,-5.249531 l -0.314662,-0.400026 1.328151,-0.260959 c 4.380703,-0.860733 6.626206,-3.195581 7.197097,-7.483456 0.332556,-2.497764 -0.179802,-4.921404 -1.370357,-6.482303 -0.390618,-0.512128 -0.397004,-0.561413 -0.220475,-1.701885 0.18546,-1.198174 0.05328,-2.594909 -0.340626,-3.599491 -0.149296,-0.380741 -0.263209,-0.441829 -0.823899,-0.441829 -0.851145,0 -2.215951,0.488793 -3.596425,1.288029 l -1.11072,0.643059 -1.221206,-0.258482 c -1.661272,-0.351625 -5.453038,-0.348913 -7.126386,0.0051 l -1.2459,0.263585 -1.083748,-0.62743 c -1.427593,-0.826496 -2.779555,-1.313857 -3.644696,-1.313857 -0.644662,0 -0.71674,0.04213 -0.893225,0.522161 -0.274297,0.746069 -0.392785,3.295541 -0.187582,4.036161 0.161667,0.583488 0.138324,0.666585 -0.376741,1.341144 -0.910825,1.192872 -1.24881,2.291072 -1.324225,4.30276 -0.207424,5.533008 2.421357,8.784819 7.792864,9.639793 0.375555,0.05978 0.682826,0.145151 0.682826,0.18972 0,0.04457 -0.138395,0.256977 -0.307544,0.472014 -0.16915,0.215039 -0.397676,0.742651 -0.507835,1.172473 -0.179371,0.699871 -0.262467,0.800124 -0.795584,0.959851 -0.835972,0.250462 -2.266865,0.221823 -2.908203,-0.05821 -0.779417,-0.340322 -1.149234,-0.679585 -1.979364,-1.815828 -1.035367,-1.417155 -2.266439,-2.103854 -3.39284,-1.892538 -0.701433,0.131589 -0.712912,0.466749 -0.03518,1.027289 1.034738,0.855809 1.596966,1.530537 2.079125,2.495148 0.270743,0.541649 0.669519,1.220844 0.886172,1.509322 0.808555,1.076609 2.930052,1.721313 4.912772,1.492947 l 0.923824,-0.106403 0,1.94448 c 0,1.298153 -0.06408,2.008564 -0.192797,2.137278 -0.330457,0.330455 -1.121034,0.198486 -2.54197,-0.424328 l 0,0 z"
   style="fill:#000000;fill-opacity:1;stroke:#000000;stroke-width:0;stroke-miterlimit:4;stroke-opacity:0;stroke-dasharray:none" /><path
   inkscape:connector-curvature="0"
   id="path3889"
   d="M 38.33963,72.27074 C 30.57856,71.792848 23.058714,68.485167 17.475595,63.093482 14.929354,60.634546 13.658266,59.147852 12.218701,56.944893 8.053048,50.570219 6.0753206,42.723878 6.8065463,35.472971 8.0066678,23.572448 15.123454,13.336326 25.838224,8.099587 30.565213,5.789316 35.210921,4.750003 40.780068,4.75688 c 5.30055,0.0065 9.865215,1.086752 14.620517,3.459886 8.623539,4.303579 15.117557,12.081127 17.669552,21.161913 1.380516,4.912303 1.593616,11.205454 0.543823,16.059935 -0.860347,3.978442 -2.563787,8.089312 -4.679702,11.293409 C 62.009689,67.217794 50.577143,73.024275 38.33963,72.27074 l 0,0 z m 5.008472,-6.415885 c 3.523346,-0.334111 6.344176,-1.143236 9.48195,-2.719801 6.612594,-3.322477 11.565027,-9.090343 13.879695,-16.165029 0.76723,-2.345001 1.116408,-4.319053 1.248029,-7.055622 0.610047,-12.683571 -7.286461,-24.010325 -19.305121,-27.691273 -3.131666,-0.959132 -3.977319,-1.06851 -8.193916,-1.059801 -3.380142,0.007 -4.064131,0.05278 -5.542943,0.371134 -8.523853,1.834998 -15.488352,7.301188 -19.270929,15.125076 -0.93151,1.926733 -1.888748,4.9805 -2.281302,7.277769 -0.292496,1.711719 -0.324055,2.388567 -0.24873,5.334434 0.116522,4.556987 0.713087,7.196317 2.498593,11.054294 3.53843,7.64555 11.08867,13.561635 19.302368,15.124613 3.185826,0.60623 5.255601,0.705444 8.432306,0.404206 l 0,0 z"
   style="fill:#efc337;fill-opacity:1;stroke:#efc337;stroke-width:0.16518077;stroke-opacity:1" /><g
   style="font-size:6.60723066px;font-style:normal;font-variant:normal;font-weight:normal;font-stretch:normal;text-align:start;line-height:125%;letter-spacing:0px;word-spacing:0px;writing-mode:lr-tb;text-anchor:start;fill:#000000;fill-opacity:1;stroke:none;font-family:Serif;-inkscape-font-specification:Serif"
   id="text3891"><path
     d="m 28.055693,77.714798 0.239257,2.925781 -0.239257,0 c -0.241545,-0.729159 -0.553719,-1.278312 -0.936524,-1.647461 -0.551439,-0.533194 -1.260097,-0.799795 -2.125976,-0.799804 -1.180343,9e-6 -2.078129,0.467131 -2.69336,1.401367 -0.514976,0.788418 -0.772463,1.727219 -0.772461,2.816406 -2e-6,0.884119 0.170897,1.690758 0.512696,2.419922 0.341794,0.729168 0.789547,1.26351 1.343261,1.603027 0.553707,0.339519 1.122228,0.509278 1.705567,0.509278 0.341791,0 0.672194,-0.04329 0.991211,-0.129883 0.319003,-0.08659 0.62662,-0.214192 0.922851,-0.382813 l 0,-2.679687 c -7e-6,-0.46484 -0.03533,-0.769039 -0.105957,-0.912598 -0.07064,-0.14355 -0.18002,-0.252925 -0.328125,-0.328125 -0.148119,-0.07519 -0.409023,-0.112788 -0.782715,-0.112793 l 0,-0.259765 3.588868,0 0,0.259765 -0.170899,0 c -0.355478,5e-6 -0.599293,0.118494 -0.731445,0.355469 -0.09115,0.168624 -0.136728,0.501306 -0.136719,0.998047 l 0,2.836914 c -0.524097,0.282552 -1.041349,0.489909 -1.551758,0.62207 -0.510423,0.132161 -1.077805,0.198242 -1.702148,0.198242 -1.79102,0 -3.15137,-0.574218 -4.081055,-1.722656 -0.697266,-0.861326 -1.045899,-1.854814 -1.045898,-2.980469 -1e-6,-0.81575 0.195963,-1.597324 0.58789,-2.344726 0.464843,-0.888664 1.102863,-1.572257 1.914063,-2.050781 0.679033,-0.396476 1.481115,-0.594718 2.40625,-0.594727 0.337234,9e-6 0.643711,0.02735 0.919433,0.08203 0.27571,0.0547 0.666497,0.175465 1.172364,0.362305 0.2552,0.09571 0.426099,0.143563 0.512695,0.143555 0.08658,8e-6 0.160636,-0.03987 0.222168,-0.119629 0.06151,-0.07974 0.09911,-0.235831 0.112793,-0.468262 z"
     style="font-size:14px;line-height:125%;fill:#000000;font-family:Serif;-inkscape-font-specification:Serif"
     id="path2988" /><path
     d="m 31.61038,77.47554 c 0.191404,1e-5 0.354327,0.06723 0.48877,0.20166 0.134437,0.13445 0.201657,0.297373 0.20166,0.48877 -3e-6,0.191415 -0.06722,0.355477 -0.20166,0.492187 -0.134443,0.136727 -0.297366,0.205087 -0.48877,0.205078 -0.191408,9e-6 -0.35547,-0.06835 -0.492187,-0.205078 -0.13672,-0.13671 -0.20508,-0.300772 -0.205078,-0.492187 -2e-6,-0.191397 0.06722,-0.35432 0.20166,-0.48877 0.134438,-0.13443 0.29964,-0.20165 0.495605,-0.20166 z m 0.567383,3.274414 0,5.03125 c -3e-6,0.391928 0.02848,0.652833 0.08545,0.782715 0.05696,0.129883 0.141273,0.226726 0.25293,0.290527 0.11165,0.0638 0.315589,0.0957 0.611816,0.0957 l 0,0.246093 -3.041992,0 0,-0.246093 c 0.305338,0 0.510416,-0.02962 0.615234,-0.08887 0.104817,-0.05924 0.187987,-0.157226 0.249512,-0.293945 0.06152,-0.136718 0.09228,-0.398762 0.09229,-0.786133 l 0,-2.413086 c -1e-6,-0.679032 -0.02051,-1.11881 -0.06152,-1.319336 -0.0319,-0.145828 -0.08203,-0.247227 -0.150391,-0.304199 -0.06836,-0.05696 -0.161785,-0.08544 -0.280273,-0.08545 -0.127605,5e-6 -0.282553,0.03419 -0.464844,0.102539 l -0.0957,-0.246094 1.886719,-0.765625 z"
     style="font-size:14px;line-height:125%;fill:#000000;font-family:Serif;-inkscape-font-specification:Serif"
     id="path2990" /><path
     d="m 35.718779,78.876907 0,2.057618 1.46289,0 0,0.478515 -1.46289,0 0,4.060547 c -3e-6,0.4056 0.0581,0.679038 0.174316,0.820313 0.116208,0.141276 0.26546,0.211914 0.447754,0.211914 0.150388,0 0.296221,-0.04671 0.4375,-0.140137 0.141273,-0.09342 0.250647,-0.231282 0.328125,-0.413574 l 0.266601,0 c -0.159508,0.446615 -0.385094,0.782715 -0.676757,1.0083 -0.29167,0.225586 -0.592451,0.338379 -0.902344,0.338379 -0.209638,0 -0.414716,-0.0581 -0.615234,-0.174316 -0.200523,-0.116211 -0.348635,-0.282552 -0.444336,-0.499023 -0.0957,-0.216471 -0.143556,-0.550292 -0.143555,-1.001465 l 0,-4.210938 -0.991211,0 0,-0.225586 c 0.250651,-0.100254 0.506998,-0.270013 0.769043,-0.509277 0.262043,-0.239251 0.495604,-0.522942 0.700684,-0.851074 0.104816,-0.17317 0.250649,-0.489901 0.4375,-0.950196 z"
     style="font-size:14px;line-height:125%;fill:#000000;font-family:Serif;-inkscape-font-specification:Serif"
     id="path2992" /><path
     d="m 40.223661,82.226517 4.306641,0 0,-2.652344 c -7e-6,-0.47395 -0.02963,-0.786124 -0.08887,-0.936523 -0.04558,-0.113924 -0.141283,-0.211906 -0.28711,-0.293946 -0.19597,-0.109366 -0.403326,-0.164053 -0.62207,-0.164062 l -0.328125,0 0,-0.25293 3.964844,0 0,0.25293 -0.328125,0 c -0.218759,9e-6 -0.426116,0.05242 -0.62207,0.157226 -0.145842,0.07293 -0.244963,0.18344 -0.297364,0.331543 -0.05242,0.148121 -0.07862,0.450041 -0.07861,0.905762 l 0,5.981445 c -8e-6,0.469402 0.02961,0.779298 0.08887,0.929688 0.04557,0.113933 0.138989,0.211914 0.280274,0.293945 0.200511,0.109375 0.410147,0.164063 0.628906,0.164063 l 0.328125,0 0,0.252929 -3.964844,0 0,-0.252929 0.328125,0 c 0.378249,0 0.653965,-0.111654 0.827149,-0.334961 0.113925,-0.145833 0.170891,-0.496744 0.170898,-1.052735 l 0,-2.823242 -4.306641,0 0,2.823242 c -2e-6,0.469402 0.02962,0.779298 0.08887,0.929688 0.04557,0.113933 0.141273,0.211914 0.287109,0.293945 0.19596,0.109375 0.403317,0.164063 0.62207,0.164063 l 0.334961,0 0,0.252929 -3.971679,0 0,-0.252929 0.328125,0 c 0.382811,0 0.660806,-0.111654 0.833984,-0.334961 0.109373,-0.145833 0.164061,-0.496744 0.164062,-1.052735 l 0,-5.981445 c -10e-7,-0.47395 -0.02962,-0.786124 -0.08887,-0.936523 -0.04557,-0.113924 -0.138998,-0.211906 -0.280273,-0.293946 -0.200522,-0.109366 -0.410157,-0.164053 -0.628906,-0.164062 l -0.328125,0 0,-0.25293 3.971679,0 0,0.25293 -0.334961,0 c -0.218753,9e-6 -0.42611,0.05242 -0.62207,0.157226 -0.141279,0.07293 -0.239261,0.18344 -0.293945,0.331543 -0.05469,0.148121 -0.08203,0.450041 -0.08203,0.905762 z"
     style="font-size:14px;line-height:125%;fill:#000000;font-family:Serif;-inkscape-font-specification:Serif"
     id="path2994" /><path
     d="m 53.389677,80.934525 0,3.793945 c -6e-6,0.724611 0.01708,1.167807 0.05127,1.32959 0.03417,0.161785 0.08886,0.274577 0.164062,0.338379 0.07519,0.0638 0.162917,0.0957 0.263184,0.0957 0.141269,0 0.300774,-0.03874 0.478515,-0.116211 l 0.0957,0.239258 -1.873046,0.772461 -0.307618,0 0,-1.326172 c -0.537764,0.583334 -0.94792,0.950195 -1.230468,1.100586 -0.282556,0.15039 -0.581058,0.225585 -0.895508,0.225586 -0.350914,-10e-7 -0.655113,-0.1014 -0.912598,-0.3042 -0.257488,-0.202799 -0.436362,-0.463704 -0.536621,-0.782715 -0.100261,-0.319009 -0.150392,-0.77018 -0.150391,-1.353515 l 0,-2.795899 c -10e-7,-0.296218 -0.0319,-0.501296 -0.0957,-0.615234 -0.0638,-0.113926 -0.158366,-0.201654 -0.283691,-0.263184 -0.125326,-0.06152 -0.352051,-0.09 -0.680176,-0.08545 l 0,-0.252929 2.194336,0 0,4.190429 c -2e-6,0.583335 0.101397,0.966147 0.304199,1.148438 0.202797,0.182292 0.447751,0.273438 0.734864,0.273437 0.19596,10e-7 0.418127,-0.06152 0.666503,-0.18457 0.248369,-0.123046 0.543453,-0.357746 0.885254,-0.704102 l 0,-3.547851 c -4e-6,-0.355464 -0.06495,-0.59586 -0.194824,-0.721192 -0.129887,-0.125319 -0.399906,-0.192539 -0.810058,-0.20166 l 0,-0.252929 z"
     style="font-size:14px;line-height:125%;fill:#000000;font-family:Serif;-inkscape-font-specification:Serif"
     id="path2996" /><path
     d="m 56.61624,82.014603 c 0.606117,-0.843093 1.260087,-1.264642 1.961914,-1.264649 0.642573,7e-6 1.203119,0.274583 1.68164,0.823731 0.47851,0.549158 0.717767,1.299971 0.717774,2.252441 -7e-6,1.111982 -0.369147,2.007488 -1.107422,2.686524 -0.633469,0.583333 -1.339848,0.874999 -2.119141,0.875 -0.364586,-10e-7 -0.734866,-0.06608 -1.11084,-0.198243 -0.375978,-0.132161 -0.759929,-0.330403 -1.151855,-0.594726 l 0,-6.487305 c -10e-7,-0.71093 -0.01709,-1.148429 -0.05127,-1.3125 -0.03418,-0.164054 -0.08773,-0.275707 -0.160644,-0.334961 -0.07292,-0.05924 -0.164063,-0.08886 -0.273438,-0.08887 -0.127604,9e-6 -0.287109,0.03647 -0.478515,0.109375 l -0.0957,-0.239258 1.879882,-0.765625 0.307618,0 z m 0,0.4375 0,3.746093 c 0.232419,0.227866 0.472816,0.399903 0.721191,0.516114 0.248369,0.116211 0.502438,0.174316 0.762207,0.174316 0.414709,0 0.80094,-0.227864 1.158691,-0.683594 0.357743,-0.455727 0.536616,-1.118813 0.536621,-1.989257 -5e-6,-0.80208 -0.178878,-1.418453 -0.536621,-1.849122 -0.357751,-0.430658 -0.764489,-0.64599 -1.220214,-0.645996 -0.24154,6e-6 -0.483076,0.06153 -0.72461,0.184571 -0.182294,0.09115 -0.414716,0.273442 -0.697265,0.546875 z"
     style="font-size:14px;line-height:125%;fill:#000000;font-family:Serif;-inkscape-font-specification:Serif"
     id="path2998" /></g>
<path
   inkscape:connector-curvature="0"
   id="path3895"
   d="m 208.94564,39.66786 c 0.0744,-14.75811 0.0635,-14.83454 -2.11369,-14.83309 -1.86479,9.7e-4 -2.18849,0.52039 -2.18849,3.50984 0,2.75657 -0.32037,3.38543 -1.49506,2.93466 -0.82228,-0.31554 -3.88617,-1.26881 -6.80863,-2.1184 -3.22066,-0.93627 -5.31357,-2.08943 -5.31357,-2.92767 0,-0.97415 -1.07825,-1.34225 -3.64748,-1.24523 C 180.10948,25.26248 153.44411,11.30935 134.11141,-2.88509 123.71192,-10.5206 97.590202,-36.89619 90.442839,-46.97806 70.293977,-75.3995 57.70688,-107.88327 52.94565,-143.7478 c -0.555541,-4.18468 -1.010075,-14.3461 -1.010075,-22.58094 0,-99.86315 74.194665,-186.03048 173.501835,-201.49955 16.62237,-2.58926 48.74168,-2.32002 65.00742,0.54493 73.62813,12.96841 135.818,66.52534 159.35563,137.23456 6.99911,21.02597 9.68011,38.89898 9.70966,64.72966 0.0257,22.44752 -1.13273,32.26549 -5.91029,50.09208 -15.48574,57.78225 -54.62063,105.68617 -108.23399,132.48617 -23.15426,11.57426 -47.32637,18.06938 -75.8068,20.36955 -12.07106,0.97489 -14.77874,0.95912 -15.12782,-0.0881 -1.11552,-3.34658 -4.24923,-5.10487 -8.49615,-4.76709 l -4.24203,0.33737 -0.28738,-3.89413 c -0.23555,-3.19172 -0.68214,-3.95021 -2.47587,-4.20496 -2.079,-0.29527 -2.18849,0.009 -2.18849,6.07914 0,3.51448 -0.40191,6.38996 -0.89311,6.38996 -2.21696,0 -3.9702,-1.33454 -3.9702,-3.02205 0,-1.19282 -0.68509,-1.84126 -1.94532,-1.84126 -1.31125,0 -1.94533,0.64844 -1.94533,1.98939 0,1.76398 -0.4133,1.91702 -3.64748,1.35065 -2.00611,-0.35132 -4.14345,-1.26025 -4.74962,-2.01984 -0.72132,-0.90385 -2.56983,-1.28653 -5.34964,-1.10747 l -4.2475,0.2736 -0.56113,10.69928 c -0.52466,10.00403 -0.55626,9.73532 -0.48633,-4.13527 z m 77.40141,-41.57307 c 45.0317,-8.20708 85.34091,-35.32519 110.23313,-74.15957 13.20868,-20.6069 22.27452,-45.75026 25.02428,-69.40279 1.44827,-12.45764 0.68981,-37.93448 -1.48177,-49.77235 -7.84268,-42.75266 -30.45589,-79.25948 -65.25279,-105.34429 -16.8197,-12.60855 -43.57414,-24.54087 -65.66052,-29.28418 -6.7953,-1.45937 -12.65858,-1.75687 -33.98751,-1.72454 -28.33214,0.043 -32.68236,0.64808 -52.57791,7.3137 -51.73907,17.33418 -91.80558,59.26304 -106.820803,111.786 -4.75239,16.62377 -5.953852,25.03764 -5.952962,41.68874 0.0016,29.32744 3.004009,47.33817 11.248805,67.47814 9.22742,22.54027 18.48677,36.34849 36.39244,54.27108 15.5158,15.53046 26.79745,23.80453 44.27447,32.47134 17.05311,8.45657 31.55235,12.89808 52.52373,16.08938 9.22498,1.4038 41.37702,0.53221 52.03741,-1.41066 z"
   style="opacity:0;fill:#efc337;fill-opacity:1;stroke:#efc337;stroke-width:0.97266167;stroke-opacity:1" /><path
   inkscape:connector-curvature="0"
   id="path3899"
   d="m 208.74068,40.08433 c -0.18831,-13.14387 -0.357,-14.38956 -1.90873,-14.09528 -1.02662,0.19469 -1.8243,1.38106 -2.00993,2.9893 -0.16927,1.46658 -0.63141,2.66651 -1.02696,2.66651 -1.97491,0 -12.76886,-4.1866 -12.76886,-4.9526 0,-0.48586 -1.08426,-0.88337 -2.40945,-0.88337 -6.81734,0 -31.89129,-12.48249 -48.65529,-24.22192 -12.84812,-8.99722 -34.5884,-29.59472 -45.958029,-43.54221 -17.24335,-21.15299 -31.824528,-53.64749 -38.771285,-86.40275 -3.032746,-14.29997 -4.288386,-45.87666 -2.398016,-60.30503 6.043716,-46.12903 24.785036,-85.83562 55.75103,-118.11779 44.47294,-46.36321 104.90238,-68.54693 169.56849,-62.24879 53.6799,5.22814 107.95796,36.30658 141.13156,80.80885 21.97157,29.47478 34.80375,61.06396 39.25706,96.63975 1.65041,13.1845 1.4184,43.82594 -0.42281,55.83968 -6.54654,42.71565 -27.28716,83.19395 -58.53604,114.2415 -36.50355,36.26835 -82.54546,56.70116 -134.47766,59.67945 l -10.05568,0.57669 -2.23593,-2.80413 c -1.85935,-2.33184 -2.95067,-2.79945 -6.47958,-2.77637 -4.70905,0.0308 -5.66583,-0.75849 -5.68773,-4.69211 -0.01,-1.68163 -0.5387,-2.67482 -1.42559,-2.67482 -1.00237,0 -1.6018,1.68918 -2.07096,5.83597 -0.5485,4.84816 -0.97234,5.83597 -2.50403,5.83597 -1.0717,0 -2.23089,-1.01823 -2.76827,-2.43166 -1.12504,-2.95906 -2.9103,-3.15744 -3.6305,-0.40343 -0.45723,1.74845 -1.01488,1.93927 -4.04275,1.3833 -1.93179,-0.3547 -3.92817,-1.04855 -4.43639,-1.54189 -0.50821,-0.49333 -1.71188,-0.89697 -2.67482,-0.89697 -1.50719,0 -1.77768,0.9812 -1.94406,7.0518 l -0.19326,7.0518 -0.33568,-7.0518 c -0.31992,-6.72082 -0.44626,-7.0518 -2.69181,-7.0518 -2.32756,0 -2.35992,0.12679 -2.6688,10.45611 -0.28062,9.38488 -0.33383,8.97897 -0.51924,-3.96196 z m 55.72148,-40.49739 c 11.15818,-0.55203 20.91299,-1.61003 26.89665,-2.91717 72.41578,-15.81936 125.74193,-77.74433 130.70055,-151.77596 0.83175,-12.41801 -0.99751,-34.92992 -3.86499,-47.56468 -12.29526,-54.17568 -49.64279,-97.90129 -100.72215,-117.92307 -25.22252,-9.88658 -31.84661,-10.91498 -66.20409,-10.27835 -28.45335,0.52723 -29.35007,0.65103 -47.27943,6.52755 -61.54076,20.17057 -106.919198,76.11897 -113.398037,139.81176 -1.29568,12.7377 0.196834,42.54215 2.740005,54.716 4.663783,22.32494 15.966952,46.62408 30.117962,64.74649 28.40562,36.3775 70.45685,60.14364 114.26533,64.57943 4.01223,0.40626 7.73266,0.78489 8.26762,0.84141 0.53497,0.0565 8.85123,-0.28701 18.48058,-0.76341 z"
   style="opacity:0;fill:#efc337;fill-opacity:1;stroke:#efc337;stroke-width:0.87300003;stroke-miterlimit:4;stroke-opacity:1;stroke-dasharray:none;marker-start:none" /></svg>