<?xml version="1.0" encoding="UTF-8" standalone="no"?>
<!-- The icon can be used freely in both personal and commercial projects with no attribution required, but always appreciated. 
You may NOT sub-license, resell, rent, redistribute or otherwise transfer the icon without express written permission from iconmonstr.com -->

<svg
   xmlns:dc="http://purl.org/dc/elements/1.1/"
   xmlns:cc="http://creativecommons.org/ns#"
   xmlns:rdf="http://www.w3.org/1999/02/22-rdf-syntax-ns#"
   xmlns:svg="http://www.w3.org/2000/svg"
   xmlns="http://www.w3.org/2000/svg"
   xmlns:sodipodi="http://sodipodi.sourceforge.net/DTD/sodipodi-0.dtd"
   xmlns:inkscape="http://www.inkscape.org/namespaces/inkscape"
   version="1.1"
   x="0px"
   y="0px"
   width="80"
   height="90"
   viewBox="0 0 80 90"
   enable-background="new 0 0 512 512"
   xml:space="preserve"
   id="svg4118"
   inkscape:version="0.48.5 r10040"
   sodipodi:docname="linkedinicon.svg"><metadata
   id="metadata4125"><rdf:RDF><cc:Work
       rdf:about=""><dc:format>image/svg+xml</dc:format><dc:type
         rdf:resource="http://purl.org/dc/dcmitype/StillImage" /><dc:title /></cc:Work></rdf:RDF></metadata><defs
   id="defs4123">
   

   </defs><sodipodi:namedview
   pagecolor="#ffffff"
   bordercolor="#666666"
   borderopacity="1"
   objecttolerance="10"
   gridtolerance="10"
   guidetolerance="10"
   inkscape:pageopacity="0"
   inkscape:pageshadow="2"
   inkscape:window-width="1366"
   inkscape:window-height="716"
   id="namedview4121"
   showgrid="false"
   inkscape:zoom="14.466899"
   inkscape:cx="61.955422"
   inkscape:cy="14.266394"
   inkscape:window-x="-8"
   inkscape:window-y="-8"
   inkscape:window-maximized="1"
   inkscape:current-layer="svg4118" />



<path
   style="fill:#efc337;fill-opacity:1"
   d="m 40.757874,10.393838 c 7.501957,0 14.55488,2.921432 19.859715,8.226098 5.304834,5.304835 8.226097,12.357757 8.226097,19.859715 0,7.501957 -2.921432,14.55488 -8.226097,19.859714 -5.304835,5.304666 -12.357758,8.226098 -19.859715,8.226098 -7.501957,0 -14.55488,-2.921601 -19.859715,-8.226098 -5.304834,-5.304834 -8.226097,-12.357757 -8.226097,-19.859714 0,-7.501958 2.921432,-14.55488 8.226097,-19.859715 5.304835,-5.304666 12.357758,-8.226098 19.859715,-8.226098 m 0,-6.767665 c -19.249102,0 -34.8534783,15.604375 -34.8534783,34.853478 0,19.249102 15.6043763,34.853477 34.8534783,34.853477 19.249102,0 34.853478,-15.604375 34.853478,-34.853477 0,-19.249103 -15.604376,-34.853478 -34.853478,-34.853478 l 0,0 z m -7.214332,21.278386 c 0,2.141459 -1.722201,3.877534 -3.846233,3.877534 -2.12437,0 -3.846403,-1.736075 -3.846403,-3.877534 0,-2.141627 1.722202,-3.877534 3.846403,-3.877534 2.124201,0 3.846233,1.735907 3.846233,3.877534 z m -0.563069,6.629606 h -6.504235 v 21.014447 h 6.504235 V 31.534165 z m 10.397672,0 h -6.238603 v 21.014447 h 6.238603 c 0,0 0,-7.794489 0,-11.030956 0,-2.955271 1.360301,-4.714187 3.963822,-4.714187 2.392369,0 3.541519,1.688871 3.541519,4.714187 0,3.025485 0,11.030956 0,11.030956 h 6.473103 c 0,0 0,-7.67724 0,-13.306246 0,-5.628667 -3.18977,-8.349438 -7.64577,-8.349438 -4.456,0 -6.332505,3.471305 -6.332505,3.471305 v -2.830068 z"
   id="linkedin-circle-outline-icon"
   inkscape:connector-curvature="0" /><g
   style="font-size:6.76766539px;font-style:normal;font-weight:normal;line-height:125%;letter-spacing:0px;word-spacing:0px;fill:#000000;fill-opacity:1;stroke:none;font-family:Sans"
   id="text4635"><path
     d="m 23.01178,85.483765 0.225586,0.04785 -0.792969,2.515625 -7.177734,0 0,-0.252929 0.348632,0 c 0.391926,0 0.6722,-0.127604 0.840821,-0.382813 0.0957,-0.145833 0.143553,-0.483072 0.143554,-1.011719 l 0,-5.981445 c -1e-6,-0.578768 -0.0638,-0.941072 -0.191406,-1.086914 -0.177735,-0.200512 -0.442058,-0.300772 -0.792969,-0.300781 l -0.348632,0 0,-0.25293 4.197265,0 0,0.25293 c -0.492191,-0.0045 -0.837406,0.04102 -1.035644,0.136718 -0.198246,0.09571 -0.333825,0.21648 -0.406739,0.362305 -0.07292,0.145842 -0.109378,0.494474 -0.109375,1.045899 l 0,5.824218 c -3e-6,0.378257 0.03646,0.638022 0.109375,0.779297 0.05468,0.0957 0.138995,0.166342 0.25293,0.211914 0.113929,0.04557 0.469397,0.06836 1.066406,0.06836 l 0.676758,0 c 0.710932,0 1.209955,-0.05241 1.49707,-0.157227 0.287103,-0.104817 0.549147,-0.290526 0.786133,-0.557129 0.236972,-0.2666 0.473951,-0.68701 0.710938,-1.26123 z"
     style="font-size:14px;font-variant:normal;font-stretch:normal;text-align:start;line-height:125%;writing-mode:lr-tb;text-anchor:start;fill:#000000;font-family:Serif;-inkscape-font-specification:Serif"
     id="path3009" /><path
     d="m 25.575256,78.326538 c 0.191404,1e-5 0.354327,0.06723 0.48877,0.20166 0.134437,0.13445 0.201657,0.297373 0.20166,0.48877 -3e-6,0.191415 -0.06722,0.355477 -0.20166,0.492187 -0.134443,0.136727 -0.297366,0.205087 -0.48877,0.205078 -0.191408,9e-6 -0.35547,-0.06835 -0.492187,-0.205078 -0.13672,-0.13671 -0.20508,-0.300772 -0.205078,-0.492187 -2e-6,-0.191397 0.06722,-0.35432 0.20166,-0.48877 0.134438,-0.13443 0.29964,-0.20165 0.495605,-0.20166 z m 0.567383,3.274414 0,5.03125 c -2e-6,0.391928 0.02848,0.652833 0.08545,0.782715 0.05696,0.129883 0.141274,0.226726 0.25293,0.290527 0.111651,0.0638 0.315589,0.0957 0.611816,0.0957 l 0,0.246094 -3.041992,0 0,-0.246094 c 0.305338,10e-7 0.510416,-0.02962 0.615235,-0.08887 0.104816,-0.05924 0.187987,-0.157226 0.249511,-0.293945 0.06152,-0.136718 0.09228,-0.398762 0.09229,-0.786133 l 0,-2.413086 c -2e-6,-0.679032 -0.02051,-1.11881 -0.06152,-1.319336 -0.0319,-0.145828 -0.08203,-0.247227 -0.150391,-0.304199 -0.06836,-0.05696 -0.161784,-0.08544 -0.280273,-0.08545 -0.127605,5e-6 -0.282553,0.03419 -0.464844,0.102539 l -0.0957,-0.246094 1.886719,-0.765625 z"
     style="font-size:14px;font-variant:normal;font-stretch:normal;text-align:start;line-height:125%;writing-mode:lr-tb;text-anchor:start;fill:#000000;font-family:Serif;-inkscape-font-specification:Serif"
     id="path3011" /><path
     d="m 29.690491,82.927124 c 0.733721,-0.884109 1.433264,-1.326165 2.098633,-1.326172 0.341792,7e-6 0.635737,0.08546 0.881835,0.256348 0.246089,0.170904 0.442052,0.452317 0.587891,0.844238 0.100255,0.273443 0.150385,0.692713 0.150391,1.257813 l 0,2.672851 c -6e-6,0.396486 0.03189,0.665365 0.0957,0.806641 0.05012,0.113933 0.131016,0.2028 0.242676,0.266601 0.111647,0.0638 0.317864,0.0957 0.618652,0.0957 l 0,0.246094 -3.09668,0 0,-0.246094 0.129883,0 c 0.291663,10e-7 0.495601,-0.04443 0.611817,-0.1333 0.116206,-0.08887 0.197098,-0.219889 0.242675,-0.393067 0.01822,-0.06836 0.02734,-0.282551 0.02734,-0.642578 l 0,-2.563476 c -5e-6,-0.569657 -0.07406,-0.983231 -0.222168,-1.240723 -0.148116,-0.257482 -0.397628,-0.386225 -0.748535,-0.386231 -0.542321,6e-6 -1.08236,0.29623 -1.620117,0.888672 l 0,3.301758 c -3e-6,0.423829 0.02506,0.685873 0.07519,0.786133 0.0638,0.132162 0.151527,0.229004 0.263184,0.290527 0.111651,0.06152 0.338376,0.09229 0.680175,0.09229 l 0,0.246094 -3.096679,0 0,-0.246094 0.136718,0 c 0.31901,10e-7 0.534342,-0.08089 0.645997,-0.242675 0.111652,-0.161784 0.167479,-0.47054 0.16748,-0.92627 l 0,-2.324219 c -10e-7,-0.751948 -0.01709,-1.209956 -0.05127,-1.374023 -0.03418,-0.164057 -0.08659,-0.275711 -0.157227,-0.334961 -0.07064,-0.05924 -0.165203,-0.08886 -0.283691,-0.08887 -0.127605,5e-6 -0.280274,0.03419 -0.458008,0.102539 l -0.102539,-0.246094 1.886718,-0.765625 0.293946,0 z"
     style="font-size:14px;font-variant:normal;font-stretch:normal;text-align:start;line-height:125%;writing-mode:lr-tb;text-anchor:start;fill:#000000;font-family:Serif;-inkscape-font-specification:Serif"
     id="path3013" /><path
     d="m 36.717834,78.326538 0,6.227539 1.592774,-1.449219 c 0.337235,-0.30989 0.533199,-0.505854 0.587891,-0.58789 0.03645,-0.05468 0.05468,-0.10937 0.05469,-0.164063 -4e-6,-0.09114 -0.0376,-0.169753 -0.112793,-0.23584 -0.0752,-0.06607 -0.199386,-0.103672 -0.372559,-0.112793 l 0,-0.21875 2.720704,0 0,0.21875 c -0.373705,0.0091 -0.68474,0.06609 -0.933106,0.170899 -0.248378,0.104823 -0.520676,0.291672 -0.816894,0.560547 l -1.606446,1.483398 1.606446,2.030274 c 0.446609,0.560548 0.74739,0.916016 0.902343,1.066406 0.218744,0.214193 0.41015,0.35319 0.574219,0.416992 0.113926,0.04557 0.312168,0.06836 0.594727,0.06836 l 0,0.246094 -3.041993,0 0,-0.246094 c 0.173173,-0.0046 0.290523,-0.03076 0.352051,-0.07861 0.06152,-0.04785 0.09228,-0.115071 0.09229,-0.20166 -4e-6,-0.104817 -0.09115,-0.273437 -0.273437,-0.505859 l -1.920899,-2.454102 0,2.078125 c -2e-6,0.4056 0.02848,0.672201 0.08545,0.799805 0.05696,0.127604 0.137855,0.21875 0.242675,0.273437 0.104815,0.05469 0.33268,0.08431 0.683594,0.08887 l 0,0.246094 -3.185547,0 0,-0.246094 c 0.31901,10e-7 0.558268,-0.03874 0.717774,-0.11621 0.0957,-0.05013 0.168619,-0.127604 0.21875,-0.232422 0.06836,-0.15039 0.102538,-0.410156 0.102539,-0.779297 l 0,-5.701172 c -1e-6,-0.724602 -0.01595,-1.167798 -0.04785,-1.32959 -0.0319,-0.161775 -0.08431,-0.273429 -0.157226,-0.334961 -0.07292,-0.06151 -0.168621,-0.09228 -0.28711,-0.09229 -0.0957,9e-6 -0.239258,0.03875 -0.430664,0.116211 l -0.116211,-0.239258 1.859375,-0.765625 z"
     style="font-size:14px;font-variant:normal;font-stretch:normal;text-align:start;line-height:125%;writing-mode:lr-tb;text-anchor:start;fill:#000000;font-family:Serif;-inkscape-font-specification:Serif"
     id="path3015" /><path
     d="m 42.91803,84.143921 c -0.0046,0.92969 0.221027,1.658856 0.676758,2.1875 0.455726,0.528647 0.991207,0.79297 1.606445,0.792969 0.410152,10e-7 0.76676,-0.112792 1.069824,-0.338379 0.303055,-0.225585 0.557124,-0.611815 0.762207,-1.158692 l 0.211914,0.136719 c -0.09571,0.624351 -0.373703,1.192872 -0.833984,1.705566 -0.460291,0.512696 -1.036788,0.769043 -1.729492,0.769043 -0.751956,0 -1.395673,-0.292805 -1.931153,-0.878418 -0.535482,-0.58561 -0.803223,-1.372882 -0.803222,-2.361816 -1e-6,-1.070959 0.274576,-1.906082 0.82373,-2.505371 0.549152,-0.599278 1.238442,-0.898919 2.067871,-0.898926 0.701819,7e-6 1.278316,0.231289 1.729492,0.693848 0.451167,0.46257 0.676752,1.081222 0.676758,1.855957 z m 0,-0.396484 2.898437,0 c -0.02279,-0.401037 -0.07064,-0.683589 -0.143554,-0.847657 -0.113937,-0.255203 -0.283696,-0.455723 -0.509278,-0.601562 -0.225589,-0.145828 -0.461429,-0.218744 -0.707519,-0.21875 -0.378258,6e-6 -0.716637,0.146978 -1.015137,0.440918 -0.298504,0.29395 -0.472821,0.702967 -0.522949,1.227051 z"
     style="font-size:14px;font-variant:normal;font-stretch:normal;text-align:start;line-height:125%;writing-mode:lr-tb;text-anchor:start;fill:#000000;font-family:Serif;-inkscape-font-specification:Serif"
     id="path3017" /><path
     d="m 52.495178,87.34314 c -0.305343,0.31901 -0.603845,0.548014 -0.895508,0.687011 -0.29167,0.138998 -0.606123,0.208496 -0.943359,0.208496 -0.683596,0 -1.280601,-0.285969 -1.791016,-0.85791 -0.510417,-0.571939 -0.765625,-1.306801 -0.765625,-2.20459 0,-0.897782 0.282552,-1.719233 0.847657,-2.464355 0.565102,-0.745111 1.291989,-1.117669 2.180664,-1.117676 0.551428,7e-6 1.007157,0.175462 1.367187,0.526367 l 0,-1.155273 c -5e-6,-0.715487 -0.01709,-1.155265 -0.05127,-1.319336 -0.03419,-0.164054 -0.08773,-0.275707 -0.160645,-0.334961 -0.07292,-0.05924 -0.164067,-0.08886 -0.273437,-0.08887 -0.118494,9e-6 -0.275721,0.03647 -0.47168,0.109375 l -0.08887,-0.239258 1.866211,-0.765625 0.307617,0 0,7.239258 c -6e-6,0.733726 0.01708,1.181479 0.05127,1.343262 0.03417,0.161784 0.08886,0.274577 0.164063,0.338379 0.07519,0.0638 0.162917,0.0957 0.263184,0.0957 0.12304,0 0.287102,-0.03874 0.492187,-0.116211 l 0.0752,0.239258 -1.859375,0.77246 -0.314453,0 z m 0,-0.478516 0,-3.226562 c -0.02735,-0.309892 -0.10938,-0.592443 -0.246094,-0.847657 -0.136723,-0.255203 -0.317875,-0.447748 -0.543457,-0.577636 -0.225589,-0.129877 -0.445478,-0.194819 -0.659668,-0.194825 -0.401044,6e-6 -0.758791,0.180019 -1.073242,0.540039 -0.414715,0.473964 -0.622072,1.166671 -0.62207,2.078125 -2e-6,0.920576 0.200519,1.625816 0.601562,2.115723 0.401039,0.48991 0.847654,0.734864 1.339844,0.734863 0.41471,10e-7 0.815751,-0.207356 1.203125,-0.62207 z"
     style="font-size:14px;font-variant:normal;font-stretch:normal;text-align:start;line-height:125%;writing-mode:lr-tb;text-anchor:start;fill:#000000;font-family:Serif;-inkscape-font-specification:Serif"
     id="path3019" /><path
     d="m 58.955139,87.794312 0,0.252929 -3.97168,0 0,-0.252929 0.328125,0 c 0.382812,0 0.660806,-0.111654 0.833985,-0.334961 0.109373,-0.145833 0.164061,-0.496744 0.164062,-1.052735 l 0,-5.988281 c -1e-6,-0.469393 -0.02962,-0.779289 -0.08887,-0.929688 -0.04557,-0.113923 -0.138999,-0.211905 -0.280273,-0.293945 -0.200522,-0.109366 -0.410157,-0.164053 -0.628907,-0.164062 l -0.328125,0 0,-0.25293 3.97168,0 0,0.25293 -0.334961,0 c -0.378259,9e-6 -0.653974,0.111662 -0.827148,0.334961 -0.113936,0.145841 -0.170902,0.496753 -0.170899,1.052734 l 0,5.988281 c -3e-6,0.469402 0.02962,0.779298 0.08887,0.929688 0.04557,0.113933 0.141272,0.211914 0.287109,0.293945 0.19596,0.109375 0.403316,0.164063 0.62207,0.164063 z"
     style="font-size:14px;font-variant:normal;font-stretch:normal;text-align:start;line-height:125%;writing-mode:lr-tb;text-anchor:start;fill:#000000;font-family:Serif;-inkscape-font-specification:Serif"
     id="path3021" /><path
     d="m 61.573303,82.927124 c 0.733721,-0.884109 1.433265,-1.326165 2.098633,-1.326172 0.341792,7e-6 0.635737,0.08546 0.881836,0.256348 0.246088,0.170904 0.442052,0.452317 0.587891,0.844238 0.100254,0.273443 0.150384,0.692713 0.15039,1.257813 l 0,2.672851 c -6e-6,0.396486 0.0319,0.665365 0.0957,0.806641 0.05012,0.113933 0.131016,0.2028 0.242676,0.266601 0.111647,0.0638 0.317865,0.0957 0.618652,0.0957 l 0,0.246094 -3.096679,0 0,-0.246094 0.129883,0 c 0.291662,10e-7 0.495601,-0.04443 0.611816,-0.1333 0.116206,-0.08887 0.197098,-0.219889 0.242676,-0.393067 0.01822,-0.06836 0.02734,-0.282551 0.02734,-0.642578 l 0,-2.563476 c -5e-6,-0.569657 -0.07406,-0.983231 -0.222168,-1.240723 -0.148117,-0.257482 -0.397628,-0.386225 -0.748536,-0.386231 -0.542321,6e-6 -1.082359,0.29623 -1.620117,0.888672 l 0,3.301758 c -2e-6,0.423829 0.02506,0.685873 0.0752,0.786133 0.0638,0.132162 0.151527,0.229004 0.263183,0.290527 0.111651,0.06152 0.338376,0.09229 0.680176,0.09229 l 0,0.246094 -3.09668,0 0,-0.246094 0.136719,0 c 0.31901,10e-7 0.534342,-0.08089 0.645996,-0.242675 0.111653,-0.161784 0.167479,-0.47054 0.167481,-0.92627 l 0,-2.324219 c -2e-6,-0.751948 -0.01709,-1.209956 -0.05127,-1.374023 -0.03418,-0.164057 -0.08659,-0.275711 -0.157227,-0.334961 -0.07064,-0.05924 -0.165202,-0.08886 -0.283691,-0.08887 -0.127605,5e-6 -0.280274,0.03419 -0.458008,0.102539 l -0.102539,-0.246094 1.886719,-0.765625 0.293945,0 z"
     style="font-size:14px;font-variant:normal;font-stretch:normal;text-align:start;line-height:125%;writing-mode:lr-tb;text-anchor:start;fill:#000000;font-family:Serif;-inkscape-font-specification:Serif"
     id="path3023" /></g>
<path
   style="opacity:0.17699112000000000;fill:#000000;fill-opacity:1;stroke:#000000;stroke-width:0.16959514000000001;stroke-miterlimit:4;stroke-opacity:1;stroke-dasharray:none"
   d="m 29.027202,28.604012 c -1.408141,-0.26511 -2.49811,-1.270943 -2.909038,-2.684482 -0.780045,-2.683262 1.626288,-5.307539 4.31437,-4.705127 3.44712,0.772516 4.113745,5.428945 0.997252,6.965883 -0.993692,0.490052 -1.539245,0.586267 -2.402584,0.423726 z"
   id="path2994"
   inkscape:connector-curvature="0" /><path
   style="opacity:0.17699112;fill:#000000;fill-opacity:1;stroke:#000000;stroke-width:0.16959514;stroke-miterlimit:4;stroke-opacity:1;stroke-dasharray:none"
   d="m 28.051814,28.245414 c -1.924905,-0.979019 -2.634696,-3.404926 -1.541855,-5.269718 2.106125,-3.59383 7.56167,-1.42719 6.828433,2.711875 -0.401452,2.266168 -3.198873,3.619664 -5.286578,2.557843 z"
   id="path3764"
   inkscape:connector-curvature="0" /><path
   style="opacity:0.17699112;fill:#000000;fill-opacity:1;stroke:#000000;stroke-width:0.16959514;stroke-miterlimit:4;stroke-opacity:1;stroke-dasharray:none"
   d="m 28.211769,28.299896 c -1.351735,-0.674302 -2.105711,-1.811659 -2.128709,-3.211111 -0.0216,-1.314257 0.270151,-2.110411 1.051702,-2.869992 0.845338,-0.821574 1.304171,-0.986209 2.653589,-0.952137 1.356026,0.03424 2.344848,0.592216 3.038886,1.714796 0.418928,0.677599 0.466502,0.881994 0.465575,2.00023 -9.1e-4,1.096585 -0.05175,1.323716 -0.425173,1.899578 -0.970546,1.496681 -3.161288,2.164197 -4.65587,1.418636 l 0,0 z"
   id="path3766"
   inkscape:connector-curvature="0" /><path
   style="opacity:0.17699112;fill:#000000;fill-opacity:1;stroke:#000000;stroke-width:0.16959514;stroke-miterlimit:4;stroke-opacity:1;stroke-dasharray:none"
   d="m 28.165642,28.208522 c -0.811276,-0.387794 -1.312147,-0.910244 -1.803617,-1.881322 -0.19497,-0.385233 -0.244112,-0.777517 -0.193139,-1.541773 0.08383,-1.256862 0.110003,-1.350949 0.567344,-2.039218 0.376937,-0.567267 1.232987,-1.223706 1.778116,-1.363501 0.546377,-0.140115 1.988146,-0.07279 2.561964,0.119627 0.619449,0.207722 1.581961,1.091572 1.941094,1.782456 0.146029,0.280925 0.232145,0.859139 0.229623,1.541774 -0.0047,1.285308 -0.02904,1.399351 -0.437493,2.053714 -0.287482,0.460564 -1.597084,1.553871 -1.597084,1.333308 0,-0.05331 -0.100654,-0.0134 -0.223675,0.0887 -0.123022,0.102099 -0.626025,0.210019 -1.117786,0.239822 -0.712513,0.04318 -1.058877,-0.02457 -1.705347,-0.333587 l 0,0 z"
   id="path3768"
   inkscape:connector-curvature="0" /><path
   style="opacity:0.17699112;fill:#000000;fill-opacity:1;stroke:#000000;stroke-width:0.16959514;stroke-miterlimit:4;stroke-opacity:1;stroke-dasharray:none"
   d="m 28.475352,28.346981 c -0.795578,-0.265192 -1.690081,-1.133225 -2.082904,-2.021267 -0.253278,-0.572576 -0.289714,-0.884481 -0.208385,-1.783811 0.115085,-1.272591 0.558507,-2.038648 1.606316,-2.775075 0.575957,-0.404798 0.780928,-0.459211 1.698188,-0.450812 0.573744,0.0053 1.286846,0.08997 1.58467,0.188263 0.62775,0.207176 1.743201,1.288172 1.980386,1.919213 0.281627,0.749283 0.20367,2.735334 -0.128768,3.2805 -0.463125,0.75948 -1.550962,1.545321 -2.406203,1.738213 -0.895537,0.201981 -1.193318,0.188103 -2.0433,-0.09522 z"
   id="path3770"
   inkscape:connector-curvature="0" /><path
   style="opacity:0.17699112;fill:#000000;fill-opacity:1;stroke:#000000;stroke-width:0.16959514;stroke-miterlimit:4;stroke-opacity:1;stroke-dasharray:none"
   d="m 28.515061,28.377413 c -0.817073,-0.309132 -1.865197,-1.358931 -2.180156,-2.183641 -0.32635,-0.854535 -0.193946,-2.303249 0.290552,-3.179111 0.190913,-0.345128 0.655547,-0.862464 1.03252,-1.149636 0.679719,-0.5178 0.697088,-0.521696 2.093804,-0.469732 1.259842,0.04687 1.467605,0.09759 1.969704,0.480839 1.053745,0.804314 1.403824,1.423057 1.470246,2.598568 0.08277,1.464863 -0.0632,2.064051 -0.665186,2.730373 -1.014763,1.123221 -2.778742,1.638737 -4.011484,1.17234 l 0,0 z"
   id="path3772"
   inkscape:connector-curvature="0" /><path
   style="opacity:0.17699112;fill:#000000;fill-opacity:1;stroke:#000000;stroke-width:0.16959514;stroke-miterlimit:4;stroke-opacity:1;stroke-dasharray:none"
   d="m 26.587129,42.030374 0,-10.484062 3.160636,0 3.160637,0 0,10.484062 0,10.484063 -3.160637,0 -3.160636,0 0,-10.484063 z"
   id="path3774"
   inkscape:connector-curvature="0" /><path
   style="opacity:0.17699112;fill:#000000;fill-opacity:1;stroke:#000000;stroke-width:0.16959514;stroke-miterlimit:4;stroke-opacity:1;stroke-dasharray:none"
   d="m 26.587129,42.030374 0,-10.484062 3.160636,0 3.160637,0 0,10.484062 0,10.484063 -3.160637,0 -3.160636,0 0,-10.484063 z"
   id="path3776"
   inkscape:connector-curvature="0" /><path
   style="opacity:0.17699112;fill:#000000;fill-opacity:1;stroke:#000000;stroke-width:0.16959514;stroke-miterlimit:4;stroke-opacity:1;stroke-dasharray:none"
   d="m 26.587129,42.030374 0,-10.484062 3.160636,0 3.160637,0 0,10.484062 0,10.484063 -3.160637,0 -3.160636,0 0,-10.484063 z"
   id="path3778"
   inkscape:connector-curvature="0" /><path
   style="opacity:0.17699112;fill:#000000;fill-opacity:1;stroke:#000000;stroke-width:0.16959514;stroke-miterlimit:4;stroke-opacity:1;stroke-dasharray:none"
   d="m 26.587129,42.030374 0,-10.484062 3.160636,0 3.160637,0 0,10.484062 0,10.484063 -3.160637,0 -3.160636,0 0,-10.484063 z"
   id="path3780"
   inkscape:connector-curvature="0" /><path
   style="opacity:0.17699112;fill:#000000;fill-opacity:1;stroke:#000000;stroke-width:0.16959514;stroke-miterlimit:4;stroke-opacity:1;stroke-dasharray:none"
   d="m 26.587129,42.030374 0,-10.484062 3.160636,0 3.160637,0 0,10.484062 0,10.484063 -3.160637,0 -3.160636,0 0,-10.484063 z"
   id="path3782"
   inkscape:connector-curvature="0" /><path
   style="opacity:0.17699112;fill:#000000;fill-opacity:1;stroke:#000000;stroke-width:0.16959514;stroke-miterlimit:4;stroke-opacity:1;stroke-dasharray:none"
   d="m 26.587129,42.030374 0,-10.484062 3.160636,0 3.160637,0 0,10.484062 0,10.484063 -3.160637,0 -3.160636,0 0,-10.484063 z"
   id="path3784"
   inkscape:connector-curvature="0" /><path
   style="opacity:0.17699112;fill:#000000;fill-opacity:1;stroke:#000000;stroke-width:0.16959514;stroke-miterlimit:4;stroke-opacity:1;stroke-dasharray:none"
   d="m 26.587129,42.030374 0,-10.484062 3.160636,0 3.160637,0 0,10.484062 0,10.484063 -3.160637,0 -3.160636,0 0,-10.484063 z"
   id="path3786"
   inkscape:connector-curvature="0" /><path
   style="opacity:0.17699112;fill:#000000;fill-opacity:1;stroke:#000000;stroke-width:0.16959514;stroke-miterlimit:4;stroke-opacity:1;stroke-dasharray:none"
   d="m 37.225368,42.030374 0,-10.484062 3.006459,0 3.00646,0 0,1.387596 c 0,0.763178 0.02751,1.387597 0.06114,1.387597 0.03363,0 0.53663,-0.475435 1.117786,-1.056523 1.630272,-1.63008 3.089685,-2.245703 5.299164,-2.235343 0.72223,0.0034 1.693548,0.09475 2.158483,0.203025 1.976768,0.460361 3.632237,1.793032 4.481342,3.607529 0.856433,1.830152 0.906616,2.403381 0.909551,10.389362 l 0.0027,7.284882 -3.160637,0 -3.160636,0 0,-6.057614 c 0,-6.658654 -0.0785,-7.39275 -0.902029,-8.435061 -0.234494,-0.296791 -0.73454,-0.699938 -1.111214,-0.895881 -0.574306,-0.298751 -0.873478,-0.348528 -1.853292,-0.308355 -1.570788,0.0644 -2.488251,0.603211 -3.109385,1.826081 -0.617839,1.216386 -0.722796,2.44342 -0.728189,8.513166 l -0.0048,5.357664 -3.00646,0 -3.006459,0 0,-10.484063 z"
   id="path3788"
   inkscape:connector-curvature="0" /><path
   style="opacity:0.17699112;fill:#000000;fill-opacity:1;stroke:#000000;stroke-width:0.16959514;stroke-miterlimit:4;stroke-opacity:1;stroke-dasharray:none"
   d="m 37.225368,42.030374 0,-10.484062 3.006459,0 3.00646,0 0,1.387596 c 0,0.763178 0.02631,1.387597 0.05848,1.387597 0.03216,0 0.511874,-0.444559 1.066027,-0.987909 1.786623,-1.751794 2.980983,-2.245505 5.438598,-2.248147 2.462368,-0.0026 3.882094,0.53236 5.324525,2.006484 1.150105,1.175376 1.808028,2.717299 1.998364,4.683416 0.07469,0.771509 0.137677,4.403421 0.139975,8.070916 l 0.0042,6.668172 -3.160637,0 -3.160636,0 0,-6.057614 c 0,-6.658654 -0.0785,-7.39275 -0.902029,-8.435061 -1.354165,-1.713922 -4.634422,-1.641867 -5.805349,0.127523 -0.865324,1.307594 -0.89878,1.593147 -0.965015,8.236601 l -0.0611,6.128551 -2.994147,0 -2.994148,0 0,-10.484063 z"
   id="path3790"
   inkscape:connector-curvature="0" /><path
   style="opacity:0.17699112;fill:#000000;fill-opacity:1;stroke:#000000;stroke-width:0.16959514;stroke-miterlimit:4;stroke-opacity:1;stroke-dasharray:none"
   d="m 37.225368,42.030374 0,-10.484062 3.006459,0 3.00646,0 0,1.387596 c 0,0.763178 0.02436,1.387597 0.05414,1.387597 0.02978,0 0.547426,-0.473164 1.150336,-1.051476 1.296649,-1.243747 2.230384,-1.78402 3.516321,-2.034596 0.92736,-0.180704 3.227284,-0.14199 4.144406,0.06976 2.474103,0.571238 4.550438,3.041204 4.933333,5.868593 0.04593,0.33919 0.123644,3.929596 0.17269,7.978679 l 0.08917,7.361971 -3.166632,0 -3.166632,0 -0.05122,-6.513995 c -0.05595,-7.115527 -0.04219,-7.003055 -0.995653,-8.136184 -1.319492,-1.568126 -4.560044,-1.405477 -5.678767,0.285027 -0.860677,1.300572 -0.895358,1.596682 -0.964668,8.236601 l -0.06397,6.128551 -2.992885,0 -2.992885,0 0,-10.484063 z"
   id="path3792"
   inkscape:connector-curvature="0" /><path
   style="opacity:0.17699112;fill:#000000;fill-opacity:1;stroke:#000000;stroke-width:0.16959514;stroke-miterlimit:4;stroke-opacity:1;stroke-dasharray:none"
   d="m 37.225368,42.030374 0,-10.484062 3.006459,0 3.00646,0 0,1.387596 c 0,0.763178 0.04922,1.387597 0.109391,1.387597 0.06016,0 0.391242,-0.294864 0.735727,-0.655254 0.344485,-0.36039 0.832953,-0.809262 1.085484,-0.997495 0.252531,-0.188233 0.632597,-0.470132 0.844591,-0.626442 0.824201,-0.607712 1.8602,-0.86252 3.54608,-0.872175 1.757286,-0.01006 2.86087,0.12739 3.185431,0.396751 0.113559,0.09425 0.206471,0.12573 0.206471,0.06996 0,-0.106345 0.512136,0.138062 0.903944,0.43139 0.12626,0.09453 0.635656,0.570328 1.13199,1.057337 0.944606,0.926862 1.672375,2.236387 1.955134,3.518015 0.08305,0.376402 0.200701,4.101324 0.261457,8.277604 l 0.11047,7.593237 -3.17452,0 -3.174518,0 -0.04984,-6.513995 c -0.04778,-6.245211 -0.06325,-6.542838 -0.374812,-7.213013 -0.385851,-0.829976 -1.198825,-1.585989 -1.984214,-1.84519 -0.761454,-0.251303 -2.478764,-0.130359 -3.216244,0.226508 -0.720403,0.348604 -1.39829,1.244186 -1.744243,2.304387 -0.215834,0.66144 -0.265992,1.743575 -0.32041,6.912752 l -0.06452,6.128551 -2.992885,0 -2.992885,0 0,-10.484063 z"
   id="path3794"
   inkscape:connector-curvature="0" /><path
   style="opacity:0.17699112;fill:#000000;fill-opacity:1;stroke:#000000;stroke-width:0.16959514;stroke-miterlimit:4;stroke-opacity:1;stroke-dasharray:none"
   d="m 37.225368,42.030374 0,-10.484062 3.006459,0 3.00646,0 0,1.387596 c 0,0.763178 0.04171,1.387597 0.09269,1.387597 0.05098,0 0.423434,-0.316977 0.827682,-0.704394 2.089629,-2.002626 3.084124,-2.427745 5.616341,-2.400829 3.098143,0.03293 3.571305,0.216543 5.357937,2.07918 1.017168,1.060439 1.676526,2.436581 1.833493,3.826674 0.07023,0.621991 0.177911,4.339709 0.239282,8.261597 l 0.111584,7.130704 -3.177245,0 -3.177245,0 -0.0496,-6.436906 c -0.05435,-7.053692 -0.08118,-7.272649 -1.012733,-8.265747 -1.408569,-1.501629 -4.561397,-1.326272 -5.644109,0.31392 -0.901157,1.365157 -0.912024,1.455674 -0.982418,8.183093 l -0.06493,6.20564 -2.99182,0 -2.99182,0 0,-10.484063 z"
   id="path3796"
   inkscape:connector-curvature="0" /><path
   style="opacity:0.17699112;fill:#000000;fill-opacity:1;stroke:#000000;stroke-width:0.16959514;stroke-miterlimit:4;stroke-opacity:1;stroke-dasharray:none"
   d="m 37.225368,42.030374 0,-10.484062 3.006459,0 3.00646,0 0,1.387596 c 0,0.763178 0.04171,1.387597 0.09269,1.387597 0.05098,0 0.423434,-0.316977 0.827682,-0.704394 2.191959,-2.100695 3.086175,-2.442151 6.153854,-2.349848 2.519171,0.0758 3.043775,0.267153 4.390065,1.601307 1.489049,1.475626 2.00651,2.499868 2.257816,4.469033 0.07643,0.598884 0.18262,4.258669 0.235976,8.132857 l 0.09701,7.043977 -3.162647,0 -3.162648,0 -0.0542,-6.513995 c -0.05917,-7.111591 -0.04657,-7.008638 -0.995341,-8.136184 -1.309027,-1.555689 -4.561816,-1.405495 -5.662185,0.261446 -0.901157,1.365157 -0.912024,1.455674 -0.982418,8.183093 l -0.06493,6.20564 -2.99182,0 -2.99182,0 0,-10.484063 z"
   id="path3798"
   inkscape:connector-curvature="0" /><path
   style="opacity:0.17699112;fill:#000000;fill-opacity:1;stroke:#000000;stroke-width:0.16959514;stroke-miterlimit:4;stroke-opacity:1;stroke-dasharray:none"
   d="m 37.225368,42.030374 0,-10.484062 3.006459,0 3.00646,0 0,1.284811 c 0,0.706647 0.04403,1.328841 0.09784,1.382655 0.05381,0.05381 0.426271,-0.216911 0.827682,-0.601609 1.052703,-1.008873 2.223026,-1.856237 2.889596,-2.09219 0.762005,-0.269737 4.799982,-0.271121 5.706332,-0.002 0.733168,0.217732 2.407019,1.681539 3.108024,2.718009 1.096943,1.621888 1.208268,2.57971 1.33151,11.456056 l 0.09472,6.82235 -3.162957,0 -3.162956,0 -0.0542,-6.513995 c -0.05917,-7.111591 -0.04657,-7.008638 -0.995341,-8.136184 -0.606935,-0.721301 -1.476145,-1.069143 -2.671646,-1.069143 -1.785306,0 -2.914192,0.773132 -3.574388,2.447964 -0.325135,0.824827 -0.341582,1.114417 -0.401267,7.065718 l -0.06224,6.20564 -2.99182,0 -2.99182,0 0,-10.484063 z"
   id="path3800"
   inkscape:connector-curvature="0" /><path
   style="opacity:0.17699112;fill:#000000;fill-opacity:1;stroke:#000000;stroke-width:0.16959514;stroke-miterlimit:4;stroke-opacity:1;stroke-dasharray:none"
   d="m 28.591435,28.422835 c -0.809197,-0.26624 -2.09626,-1.623409 -2.317338,-2.443561 -0.404798,-1.501713 0.200661,-3.265214 1.425715,-4.152638 0.548928,-0.397642 0.762289,-0.456032 1.66637,-0.456032 1.505474,0 1.92163,0.123016 2.682816,0.793038 0.918793,0.808754 1.219356,1.627783 1.144119,3.117701 -0.05105,1.010915 -0.117021,1.227792 -0.530498,1.743965 -0.926901,1.157116 -2.823308,1.808102 -4.071184,1.397527 z"
   id="path3802"
   inkscape:connector-curvature="0" /><path
   style="opacity:0.17699112;fill:#000000;fill-opacity:1;stroke:#000000;stroke-width:0.16959514;stroke-miterlimit:4;stroke-opacity:1;stroke-dasharray:none"
   d="m 28.336127,28.250152 c -1.049035,-0.496816 -1.997863,-1.675156 -2.146385,-2.665573 -0.214574,-1.430881 0.400923,-2.954482 1.521446,-3.766185 0.554724,-0.401839 0.738396,-0.447442 1.789899,-0.444404 1.396524,0.004 2.183811,0.309802 2.901073,1.126718 0.632355,0.720212 0.86782,1.609524 0.774642,2.925694 -0.09132,1.289925 -0.573398,1.978202 -1.825322,2.606066 -1.233897,0.618823 -2.044743,0.677359 -3.015353,0.217684 l 0,0 z"
   id="path3804"
   inkscape:connector-curvature="0" /><path
   style="opacity:0.17699112;fill:#000000;fill-opacity:1;stroke:#000000;stroke-width:0.16959514;stroke-miterlimit:4;stroke-opacity:1;stroke-dasharray:none"
   d="m 26.587129,42.030374 0,-10.484062 3.160636,0 3.160637,0 0,10.484062 0,10.484063 -3.160637,0 -3.160636,0 0,-10.484063 z"
   id="path3806"
   inkscape:connector-curvature="0" /><path
   style="opacity:0.17699112;fill:#000000;fill-opacity:1;stroke:#000000;stroke-width:0.16959514;stroke-miterlimit:4;stroke-opacity:1;stroke-dasharray:none"
   d="m 37.225368,42.030374 0,-10.484062 3.006459,0 3.00646,0 0,1.301409 c 0,1.249529 0.148801,1.708131 0.414512,1.277516 0.261427,-0.423675 2.445605,-2.171298 3.04513,-2.436496 0.832216,-0.368129 3.346253,-0.526816 4.987046,-0.314785 1.440182,0.186108 2.065263,0.531643 3.285577,1.816212 1.984146,2.088622 2.076591,2.617355 2.226299,12.733185 l 0.09754,6.591084 -3.163156,0 -3.163155,0 -0.0542,-6.513995 c -0.05917,-7.111591 -0.04657,-7.008638 -0.995341,-8.136184 -0.606935,-0.721301 -1.476145,-1.069143 -2.671646,-1.069143 -1.652948,0 -2.784947,0.697132 -3.416553,2.104053 -0.295083,0.657305 -0.634573,2.80759 -0.57825,3.66256 0.01706,0.258939 0.02093,2.604229 0.0086,5.211754 l -0.02241,4.740955 -3.00646,0 -3.006459,0 0,-10.484063 z"
   id="path3808"
   inkscape:connector-curvature="0" /></svg>