<?xml version="1.0" encoding="UTF-8" standalone="no"?>
<svg
   xmlns:dc="http://purl.org/dc/elements/1.1/"
   xmlns:cc="http://creativecommons.org/ns#"
   xmlns:rdf="http://www.w3.org/1999/02/22-rdf-syntax-ns#"
   xmlns:svg="http://www.w3.org/2000/svg"
   xmlns="http://www.w3.org/2000/svg"
   xmlns:sodipodi="http://sodipodi.sourceforge.net/DTD/sodipodi-0.dtd"
   xmlns:inkscape="http://www.inkscape.org/namespaces/inkscape"
   version="1.1"
   x="0px"
   y="0px"
   width="120px"
   height="15px"
   viewBox="-52.5 0 120 15"
   enable-background="new -52.5 0 120 15"
   xml:space="preserve"
   id="svg5278"
   inkscape:version="0.48.5 r10040"
   sodipodi:docname="workicon.svg"><metadata
   id="metadata5294"><rdf:RDF><cc:Work
       rdf:about=""><dc:format>image/svg+xml</dc:format><dc:type
         rdf:resource="http://purl.org/dc/dcmitype/StillImage" /><dc:title></dc:title></cc:Work></rdf:RDF></metadata><defs
   id="defs5292" /><sodipodi:namedview
   pagecolor="#ffffff"
   bordercolor="#666666"
   borderopacity="1"
   objecttolerance="10"
   gridtolerance="10"
   guidetolerance="10"
   inkscape:pageopacity="0"
   inkscape:pageshadow="2"
   inkscape:window-width="1366"
   inkscape:window-height="716"
   id="namedview5290"
   showgrid="false"
   inkscape:zoom="15.881592"
   inkscape:cx="53.856325"
   inkscape:cy="7.5"
   inkscape:window-x="-8"
   inkscape:window-y="-8"
   inkscape:window-maximized="1"
   inkscape:current-layer="svg5278" />
						<g
   id="g5280"
   style="fill:#000000;fill-opacity:1"><polygon
     points="4.182,13.166 4.182,13.35 4.182,13.604 10.818,13.604 10.818,13.35 10.818,13.166 10.818,12.91 4.182,12.91"
     id="polygon5282"
     style="fill:#000000;fill-opacity:1" /><path
     d="M13.559,1.396H1.516c-0.45,0-0.816,0.326-0.816,0.776v8.777c0,0.449,0.366,0.918,0.816,0.918h3.609 c0.247,0.14,0.414,0.402,0.414,0.705c0,0.003-0.001,0.007-0.001,0.009h3.999c0-0.002-0.001-0.006-0.001-0.009 c0-0.303,0.167-0.565,0.413-0.705h3.609c0.449,0,0.742-0.469,0.742-0.918V2.172C14.301,1.722,14.008,1.396,13.559,1.396z M13.252,10.508h-0.514c-0.171,0-0.309-0.102-0.309-0.272c0-0.17,0.138-0.271,0.309-0.271h0.514c0.17,0,0.308,0.102,0.308,0.271 C13.56,10.406,13.422,10.508,13.252,10.508z M1.379,9.011V2.075h12.179l0.001,6.936H1.379z"
     id="path5284"
     style="fill:#000000;fill-opacity:1" /></g>

						<line
   fill="none"
   stroke="#000000"
   x1="-42.5"
   y1="7.25"
   x2="-4.5"
   y2="7.25"
   id="line5286"
   style="stroke:#000000;stroke-opacity:1" />
						<line
   fill="none"
   stroke="#000000"
   x1="19.5"
   y1="7.25"
   x2="57.5"
   y2="7.25"
   id="line5288"
   style="stroke:#000000;stroke-opacity:1" />
</svg>